<svg xmlns="http://www.w3.org/2000/svg" version="1.1" xmlns:xlink="http://www.w3.org/1999/xlink" width="512" height="512" x="0" y="0" viewBox="0 0 520 520" style="enable-background:new 0 0 512 512" xml:space="preserve" class=""><g><g data-name="20-Checked"><path d="M212.907 420.621a10 10 0 0 1-8.624-4.938c-33.338-56.8-122.22-177.735-123.113-178.95a10 10 0 0 1 1.026-13.04l27.332-27.007a10 10 0 0 1 12.754-1.086l88.543 61.828c59.239-75.972 114.263-128.448 150.463-159.412 40.75-34.856 66.691-50.542 67.775-51.192a10 10 0 0 1 5.146-1.426h44.215a10 10 0 0 1 6.651 17.468C359.509 174.708 222.961 413.175 221.6 415.57a10 10 0 0 1-8.624 5.051z" fill="#ffffff" opacity="1" data-original="#000000"></path><path d="M381.576 474.6h-340a10 10 0 0 1-10-10v-340a10 10 0 0 1 10-10h220.489a10 10 0 0 1 0 20H51.576v320h320V244.112a10 10 0 1 1 20 0V464.6a10 10 0 0 1-10 10z" fill="#ffffff" opacity="1" data-original="#000000"></path></g></g></svg>