<svg xmlns="http://www.w3.org/2000/svg" version="1.1" xmlns:xlink="http://www.w3.org/1999/xlink" width="512" height="512" x="0" y="0" viewBox="0 0 48 48" style="enable-background:new 0 0 512 512" xml:space="preserve" class=""><rect width="48" height="48" rx="9.6" ry="9.6" fill="#474747" shape="rounded" transform="matrix(0.9,0,0,0.9,2.3999999999999986,2.3999999999999986)"></rect><g transform="matrix(0.7,0,0,0.7,7.1985103726387045,7.200713539123537)"><path d="M24.23 11.027a1 1 0 0 0-1.125.526l-7.2 14.4a1 1 0 0 0 .9 1.447H23V36a1 1 0 0 0 .77.973 1 1 0 0 0 1.125-.526l7.2-14.4A1 1 0 0 0 31.2 20.6H25V12a1 1 0 0 0-.77-.973ZM29.582 22.6 25 31.764V26.4a1 1 0 0 0-1-1h-5.582L23 16.236V21.6a1 1 0 0 0 1 1Z" fill="#f83600" opacity="1" data-original="#000000" class=""></path><path d="M24 2A21.964 21.964 0 0 0 9 7.911V7a1 1 0 0 0-2 0v4a1.007 1.007 0 0 0 1.243.97l4-1a1 1 0 1 0-.486-1.94l-1.4.35A20 20 0 0 1 42.5 31.619a1 1 0 0 0 .543 1.3.988.988 0 0 0 .381.076 1 1 0 0 0 .925-.619A22.012 22.012 0 0 0 24 2ZM39.757 36.03l-4 1a1 1 0 0 0 .486 1.94l1.4-.35A20 20 0 0 1 5.5 16.381a1 1 0 0 0-1.849-.762A22 22 0 0 0 39 40.089V41a1 1 0 0 0 2 0v-4a1.006 1.006 0 0 0-1.243-.97Z" fill="#f83600" opacity="1" data-original="#000000" class=""></path></g></svg>