<svg xmlns="http://www.w3.org/2000/svg" version="1.1" xmlns:xlink="http://www.w3.org/1999/xlink" width="512" height="512" x="0" y="0" viewBox="0 0 64 64" style="enable-background:new 0 0 512 512" xml:space="preserve" class=""><g transform="matrix(1,0,0,1,0,0)"><path d="M9.219 53.334h9.221a1 1 0 0 0 1-1v-1.465h3.795l3.065 2.748a7.284 7.284 0 0 0 4.869 1.862h5.6v2a6.162 6.162 0 0 0 12.324 0v-2h.219a3.436 3.436 0 0 0 3.546-3.3v-1.694a3.116 3.116 0 0 0-.494-1.681 3.288 3.288 0 0 0 1.905-2.93v-1.688a3.183 3.183 0 0 0-1.006-2.306 3.183 3.183 0 0 0 1.006-2.306v-1.689a3.287 3.287 0 0 0-1.905-2.929 3.117 3.117 0 0 0 .494-1.682v-1.689a3.436 3.436 0 0 0-3.546-3.3h-.223v-5.549a12.839 12.839 0 0 0 .059-22.51 1 1 0 0 0-1.484.874v9.773l-4.735 2.544-4.735-2.544V1.1A1 1 0 0 0 36.71.226a12.837 12.837 0 0 0 .058 22.51v.5h-5.23a7.3 7.3 0 0 0-5.958 3.085l-2.48 3.511h-3.66v-1.465a1 1 0 0 0-1-1H9.219a1 1 0 0 0-1 1v23.967a1 1 0 0 0 1 1zm8.221-2h-7.221v-4.46h7.221zm29.66 6.139a4.162 4.162 0 0 1-8.324 0v-2h1.867a2.609 2.609 0 1 0 4.875 0H47.1zm-3.586-.636a.612.612 0 1 1 0-.866.615.615 0 0 1-.004.866zm-4.746-30.743v-2.967h8.323V28.28h-8.323zM32.076 11.47a10.863 10.863 0 0 1 4.118-8.506v8.506a1 1 0 0 0 .527.881l5.734 3.083a1 1 0 0 0 .947 0l5.736-3.083a1 1 0 0 0 .526-.881V2.965a10.825 10.825 0 0 1-1.835 18.162h-9.8a10.763 10.763 0 0 1-5.953-9.657zm-8.458 20.362a1 1 0 0 0 .817-.423l2.778-3.931a5.3 5.3 0 0 1 4.325-2.239h5.23v3.041h-4.153v2h16.7a1.443 1.443 0 0 1 1.546 1.3v1.689a1.443 1.443 0 0 1-1.546 1.306h-6.386v2h7.8a1.442 1.442 0 0 1 1.545 1.3v1.689a1.442 1.442 0 0 1-1.545 1.306h-7.8v2h7.8a1.442 1.442 0 0 1 1.545 1.306v1.688a1.442 1.442 0 0 1-1.545 1.306h-7.8v2h6.386a1.443 1.443 0 0 1 1.546 1.3v1.689a1.442 1.442 0 0 1-1.546 1.3H31.172a5.288 5.288 0 0 1-3.535-1.352l-3.352-3a1 1 0 0 0-.667-.255H19.44v-17.02zm-6.178-2.465v15.507h-7.221V29.367z" fill="#f83600" opacity="1" data-original="#000000"></path><path d="M13.83 47.968a1.15 1.15 0 1 0 1.149 1.15 1.15 1.15 0 0 0-1.149-1.15z" fill="#f83600" opacity="1" data-original="#000000"></path></g></svg>