<svg xmlns="http://www.w3.org/2000/svg" version="1.1" xmlns:xlink="http://www.w3.org/1999/xlink" width="512" height="512" x="0" y="0" viewBox="0 0 64 64" style="enable-background:new 0 0 512 512" xml:space="preserve" class=""><rect width="64" height="64" rx="12.8" ry="12.8" fill="#474747" shape="rounded" transform="matrix(0.9,0,0,0.9,3.1999999999999993,3.1999999999999993)"></rect><g transform="matrix(0.7,0,0,0.7,9.600072455406192,9.599850511550905)"><path d="M32 24.006a10 10 0 1 0-10-10 10.016 10.016 0 0 0 10 10zm-4.7-10.71a.996.996 0 0 1 1.41 0l1.96 1.96 4.62-4.62a.997.997 0 0 1 1.41 1.41l-5.32 5.33a1.007 1.007 0 0 1-.71.29.99.99 0 0 1-.71-.29l-2.66-2.66a1.008 1.008 0 0 1 0-1.42zM21.008 49.999l-1.469 3.998h25.036l-1.37-3.998z" fill="#f83600" opacity="1" data-original="#000000"></path><path d="M59.85 38.046a4.734 4.734 0 0 0-1.44-2.34c-1.98-1.65-4.21-3.61-5.3-4.7h3.16a2.715 2.715 0 1 0 0-5.43c-1.5.08-4.29-.34-5.55.62-.89-2.24-1.96-4.98-2.78-7.1a4.965 4.965 0 0 0-4.12-3.05 10.75 10.75 0 0 1-.51 1.97h.01a2.966 2.966 0 0 1 2.76 1.82c.26.71 4.43 11.03 4.51 11.17H13.411c.08-.14 4.23-10.43 4.5-11.14a2.971 2.971 0 0 1 2.77-1.85h.01a10.749 10.749 0 0 1-.51-1.97 4.983 4.983 0 0 0-4.13 3.07c-.81 2.11-1.88 4.84-2.77 7.08-1.25-.97-4.08-.53-5.55-.62a2.715 2.715 0 0 0 0 5.43h3.16c-1.1 1.1-3.33 3.06-5.35 4.75a4.693 4.693 0 0 0-1.38 2.29c-.29.25-.09 10.34-.14 10.95a4.998 4.998 0 0 0 2.99 4.59 5.106 5.106 0 0 0 2 .41h8.4l1.96-5.34a1.002 1.002 0 0 1 .94-.66h23.61a1 1 0 0 1 .95.68l1.82 5.32h8.3a5.106 5.106 0 0 0 2-.41 5.023 5.023 0 0 0 3-4.59c-.06-.64.13-10.68-.14-10.95zm-40.359 5.43a.984.984 0 0 1-.88.53h-6.6a5.002 5.002 0 0 1-5-5 1.003 1.003 0 0 1 1-1h7.93a1.01 1.01 0 0 1 .83.44l2.67 4a.982.982 0 0 1 .05 1.03zm24.6-3.91-2.66 4a1.01 1.01 0 0 1-.83.44H23.41a1.01 1.01 0 0 1-.83-.44l-2.67-4a1.004 1.004 0 0 1 .83-1.56h22.52a1.006 1.006 0 0 1 .83 1.56zm7.9 4.44h-6.6a1.012 1.012 0 0 1-.83-1.56l2.67-4a1.01 1.01 0 0 1 .83-.44h7.93a1.003 1.003 0 0 1 1 1 5.002 5.002 0 0 1-5 5zM5.017 54.746v2.25a3.007 3.007 0 0 0 2.998 2.997h5.997a3.007 3.007 0 0 0 2.998-2.998v-1H9.015a6.95 6.95 0 0 1-3.998-1.249zM46.993 55.996v1a3.007 3.007 0 0 0 2.999 2.997h5.996a3.007 3.007 0 0 0 2.998-2.998v-2.249a6.976 6.976 0 0 1-3.997 1.25z" fill="#f83600" opacity="1" data-original="#000000"></path></g></svg>