<svg xmlns="http://www.w3.org/2000/svg" version="1.1" xmlns:xlink="http://www.w3.org/1999/xlink" width="512" height="512" x="0" y="0" viewBox="0 0 64 64" style="enable-background:new 0 0 512 512" xml:space="preserve" class=""><rect width="64" height="64" rx="12.8" ry="12.8" fill="#f5f5f5" shape="rounded" transform="matrix(0.85,0,0,0.85,4.800000000000001,4.800000000000001)"></rect><g transform="matrix(0.7,0,0,0.7,9.60330605506897,8.759991574287415)"><path d="M32 20.55a6.704 6.704 0 0 0 6.696-6.696c0-5.061-5.682-12.005-5.925-12.299a1.035 1.035 0 0 0-1.543 0c-.242.294-5.924 7.238-5.924 12.3A6.704 6.704 0 0 0 32 20.55zm0-16.725c1.508 2.023 4.696 6.696 4.696 10.03a4.696 4.696 0 1 1-9.392 0c0-3.334 3.188-8.007 4.696-10.03z" fill="#f83600" opacity="1" data-original="#000000" class=""></path><path d="M57.58 17.415c0-4.451-6.345-8.14-16.558-9.625a1 1 0 0 0-.287 1.98c9.032 1.359 17.303 4.995 14.095 9.565-2.31-2.484-6.81-4.43-12.766-5.504a1 1 0 0 0-.355 1.969c5.493.99 9.72 2.78 11.69 4.935-3.573 2.72-11.324 4.94-21.399 4.94-9.985 0-17.77-2.252-21.372-4.969 1.992-2.141 6.205-3.921 11.663-4.907a1 1 0 0 0-.355-1.967c-5.932 1.07-10.424 3.01-12.749 5.486-3.24-4.538 5.06-8.19 14.078-9.549a1 1 0 0 0-.288-1.98c-10.11 1.474-16.415 5.107-16.535 9.5a27.161 27.161 0 0 0 9.282 20.856l9.466 8.226a2.042 2.042 0 0 1 .71 1.56v5.67a3.594 3.594 0 0 0 3.59 3.589h5.01a3.6 3.6 0 0 0 3.6-3.59v-5.67a2.063 2.063 0 0 1 .706-1.565l5.88-5.1a1 1 0 0 0-1.311-1.51l-5.879 5.099A4.06 4.06 0 0 0 36.1 47.93v5.67a1.597 1.597 0 0 1-1.6 1.59h-5.01a1.592 1.592 0 0 1-1.59-1.59v-5.67a4.037 4.037 0 0 0-1.404-3.075L17.03 36.63A25.062 25.062 0 0 1 8.81 21.806c4.031 3.498 12.791 5.87 23.19 5.87 10.481 0 19.173-2.318 23.185-5.84a25.041 25.041 0 0 1-8.382 14.94 1 1 0 0 0 1.314 1.508c9.376-7.862 9.499-19.434 9.463-20.87z" fill="#f83600" opacity="1" data-original="#000000" class=""></path></g></svg>