<svg xmlns="http://www.w3.org/2000/svg" version="1.1" xmlns:xlink="http://www.w3.org/1999/xlink" width="512" height="512" x="0" y="0" viewBox="0 0 40 40" style="enable-background:new 0 0 512 512" xml:space="preserve" class=""><rect width="40" height="40" rx="8" ry="8" fill="#474747" shape="rounded" transform="matrix(0.9,0,0,0.9,2,2)"></rect><g transform="matrix(0.7,0,0,0.7,5.998499822616578,5.999999785423279)"><path d="M27 28.5c1.93 0 3.5-1.57 3.5-3.5 0-1.79-2.8-5.19-3.12-5.57a.516.516 0 0 0-.77 0c-.32.38-3.12 3.78-3.12 5.57 0 1.93 1.57 3.5 3.5 3.5zm0-7.96c1.1 1.39 2.5 3.5 2.5 4.46a2.5 2.5 0 0 1-5 0c0-.96 1.41-3.06 2.5-4.46zM3.54 10.31c-.07.27-.04.55.1.79l.9 1.55c.14.24.36.41.63.48s.55.04.79-.1l.47-.22c.34.26.7.47 1.14.68v.47c0 .57.47 1.04 1.04 1.04h1.79c.57 0 1.04-.47 1.04-1.04l.05-.51c.39-.16.75-.38 1.15-.65l.41.23c.24.14.52.18.79.1.27-.07.49-.24.63-.48l.9-1.55c.14-.24.18-.52.1-.79s-.24-.49-.48-.63l-.42-.26c.03-.22.04-.44.04-.67s-.02-.45-.02-.69l.4-.23c.24-.14.41-.36.48-.63s.03-.55-.1-.79l-.9-1.55c-.29-.5-.92-.67-1.42-.38l-.47.22c-.34-.26-.7-.47-1.14-.68v-.47c0-.57-.47-1.04-1.04-1.04H8.61c-.57 0-1.04.47-1.04 1.04l-.05.51c-.39.16-.75.38-1.15.65l-.41-.23c-.5-.29-1.13-.12-1.42.38l-.9 1.55c-.14.24-.18.52-.1.79.07.27.24.49.48.63l.42.26c-.03.22-.04.44-.04.67s.02.45.02.69l-.4.23c-.24.14-.41.36-.48.63zm1.92-4.97.41.23c.36.21.82.18 1.17-.09.27-.21.57-.38.88-.51.4-.17.65-.55.65-.97l.04-.51 1.83.04V4c0 .42.26.8.65.97.31.13.61.3.88.51.34.26.8.3 1.17.09l.46-.22.88 1.61-.4.23c-.37.21-.57.61-.51 1.02.02.18.04.36.04.54s-.01.36-.04.54c-.05.41.15.81.51 1.02l.42.29-.95 1.57-.41-.23c-.36-.21-.82-.18-1.17.09-.27.21-.57.38-.88.51-.4.17-.66.55-.66.97l-.04.51-1.83-.04v-.47c0-.42-.26-.8-.65-.97-.31-.13-.6-.3-.88-.51-.19-.15-.42-.22-.65-.22-.18 0-.35.04-.51.14l-.46.22-.88-1.61.4-.23c.37-.21.57-.61.51-1.02-.02-.18-.04-.36-.04-.54s.01-.36.04-.54c.05-.41-.15-.81-.51-1.02l-.42-.29.95-1.57z" fill="#f83600" opacity="1" data-original="#000000"></path><path d="M9.5 11.3c1.41 0 2.55-1.14 2.55-2.55S10.91 6.2 9.5 6.2 6.95 7.34 6.95 8.75 8.09 11.3 9.5 11.3zm0-4.1c.85 0 1.55.7 1.55 1.55s-.7 1.55-1.55 1.55-1.55-.7-1.55-1.55.7-1.55 1.55-1.55zM3.5 26.5c0 .83.67 1.5 1.5 1.5h.62c.22 0 .41.12.48.31.08.22.17.44.27.65a.5.5 0 0 1-.12.55l-.44.44a1.499 1.499 0 0 0 0 2.12l2.12 2.12a1.5 1.5 0 0 0 2.12 0l.44-.44a.5.5 0 0 1 .55-.12c.21.1.43.19.65.27.19.07.31.26.31.48V35c0 .83.67 1.5 1.5 1.5h3c.83 0 1.5-.67 1.5-1.5v-.62c0-.22.12-.41.31-.48.22-.08.44-.17.65-.27a.5.5 0 0 1 .55.12l.44.44c.16.16.35.27.55.34v.46a2.5 2.5 0 0 0 2.5 2.5h11a2.5 2.5 0 0 0 2.5-2.5v-2.5c0-.55-.45-1-1-1v-1c.55 0 1-.45 1-1v-1c0-.55-.45-1-1-1v-1c.55 0 1-.45 1-1v-1c0-.55-.45-1-1-1v-1c.55 0 1-.45 1-1v-1c0-.55-.45-1-1-1v-1c.55 0 1-.45 1-1v-4.67c0-.67-.26-1.3-.73-1.77l-3.83-3.83c-.47-.47-1.1-.73-1.77-.73h-.67v-1.4c0-.88-.72-1.6-1.6-1.6h-3.81c-.88 0-1.6.72-1.6 1.6v1.46a2.5 2.5 0 0 0-2 2.45v6.46c-.2.07-.39.19-.55.35l-.44.44a.5.5 0 0 1-.55.12c-.21-.1-.43-.19-.65-.27a.496.496 0 0 1-.31-.48V15c0-.83-.67-1.5-1.5-1.5h-3c-.83 0-1.5.67-1.5 1.5v.62c0 .22-.12.41-.31.48-.22.08-.44.17-.65.27-.17.08-.4.03-.55-.12l-.44-.44a1.5 1.5 0 0 0-2.12 0L5.8 17.93c-.58.58-.58 1.54 0 2.12l.44.44c.15.15.2.37.12.55-.1.21-.19.43-.27.65-.07.19-.26.31-.48.31h-.62c-.83 0-1.5.67-1.5 1.5v3zm30.5 10H23c-.65 0-1.2-.42-1.41-1h13.82c-.21.58-.76 1-1.41 1zm.5-5h-2v-1h2zm0-4h-2v-1h2zm0-4h-2v-1h2zm0-4h-2v-1h2zm-11-14.4c0-.33.27-.6.6-.6h3.81c.33 0 .6.27.6.6v1.4h-1V6c0-.28-.22-.5-.5-.5s-.5.22-.5.5v.5h-1V6c0-.28-.22-.5-.5-.5s-.5.22-.5.5v.5h-1V5.1zM23 7.5h7.17c.4 0 .78.16 1.06.44l3.83 3.83c.28.28.44.66.44 1.06v4.67h-3c-.55 0-1 .45-1 1v1c0 .55.45 1 1 1h3v1h-3c-.55 0-1 .45-1 1v1c0 .55.45 1 1 1h3v1h-3c-.55 0-1 .45-1 1v1c0 .55.45 1 1 1h3v1h-3c-.55 0-1 .45-1 1v1c0 .55.45 1 1 1h3v2h-14V15.92s.01-.03.01-.05 0-.03-.01-.05V9c0-.83.67-1.5 1.5-1.5zm-18.5 16c0-.28.22-.5.5-.5h.62c.64 0 1.21-.39 1.42-.96.07-.2.15-.39.24-.58.25-.55.12-1.23-.32-1.67l-.44-.44a.513.513 0 0 1 0-.71l2.12-2.12c.2-.2.51-.2.71 0l.44.44c.45.45 1.12.58 1.67.32.19-.09.38-.17.58-.24.58-.21.96-.78.96-1.42V15c0-.28.22-.5.5-.5h3c.28 0 .5.22.5.5v.62c0 .64.39 1.21.96 1.42.2.07.39.15.58.24.55.25 1.23.12 1.67-.32l.28-.28v3.62a7.22 7.22 0 0 0-5.5-2.55c-.28 0-.5.22-.5.5s.22.5.5.5c2.31 0 4.41 1.26 5.5 3.29v5.92a6.225 6.225 0 0 1-5.5 3.29c-3.45 0-6.25-2.8-6.25-6.25 0-.28-.22-.5-.5-.5s-.5.22-.5.5c0 4 3.25 7.25 7.25 7.25 2.16 0 4.14-.95 5.5-2.55v3.62l-.28-.28c-.45-.45-1.12-.58-1.67-.32-.19.09-.38.17-.58.24-.58.21-.96.78-.96 1.42V35c0 .28-.22.5-.5.5h-3c-.28 0-.5-.22-.5-.5v-.62c0-.64-.39-1.21-.96-1.42-.2-.07-.39-.15-.58-.24-.56-.26-1.23-.12-1.67.32l-.44.44c-.2.2-.51.2-.71 0l-2.12-2.12c-.09-.09-.15-.22-.15-.35s.05-.26.15-.35l.44-.44c.45-.45.58-1.12.32-1.67-.09-.19-.17-.38-.24-.58-.21-.58-.78-.97-1.42-.97H5c-.28 0-.5-.22-.5-.5z" fill="#f83600" opacity="1" data-original="#000000"></path><path d="M15 29.25c2.34 0 4.25-1.91 4.25-4.25s-1.91-4.25-4.25-4.25-4.25 1.91-4.25 4.25 1.91 4.25 4.25 4.25zm0-7.5c1.79 0 3.25 1.46 3.25 3.25s-1.46 3.25-3.25 3.25-3.25-1.46-3.25-3.25 1.46-3.25 3.25-3.25z" fill="#f83600" opacity="1" data-original="#000000"></path></g></svg>