<svg xmlns="http://www.w3.org/2000/svg" xmlns:xlink="http://www.w3.org/1999/xlink" width="500" zoomAndPan="magnify" viewBox="0 0 375 83.249999" height="111" preserveAspectRatio="xMidYMid meet" version="1.2"><defs><clipPath id="402bdda63c"><path d="M 193.925781 9.925781 L 228.117188 9.925781 L 228.117188 44.117188 L 193.925781 44.117188 Z M 193.925781 9.925781 "/></clipPath></defs><g id="2823fc65f8"><g style="fill:#0cc0df;fill-opacity:1;"><g transform="translate(4.856379, 42.990714)"><path style="stroke:none" d="M 14.328125 0.546875 C 11.796875 0.546875 9.347656 0.203125 6.984375 -0.484375 C 4.617188 -1.171875 2.71875 -2.0625 1.28125 -3.15625 L 3.796875 -8.75 C 5.171875 -7.738281 6.804688 -6.925781 8.703125 -6.3125 C 10.597656 -5.707031 12.488281 -5.40625 14.375 -5.40625 C 16.488281 -5.40625 18.046875 -5.71875 19.046875 -6.34375 C 20.054688 -6.96875 20.5625 -7.800781 20.5625 -8.84375 C 20.5625 -9.601562 20.265625 -10.234375 19.671875 -10.734375 C 19.078125 -11.242188 18.3125 -11.648438 17.375 -11.953125 C 16.445312 -12.253906 15.191406 -12.585938 13.609375 -12.953125 C 11.160156 -13.535156 9.15625 -14.117188 7.59375 -14.703125 C 6.039062 -15.285156 4.707031 -16.21875 3.59375 -17.5 C 2.476562 -18.78125 1.921875 -20.488281 1.921875 -22.625 C 1.921875 -24.488281 2.425781 -26.175781 3.4375 -27.6875 C 4.445312 -29.195312 5.960938 -30.394531 7.984375 -31.28125 C 10.015625 -32.164062 12.5 -32.609375 15.4375 -32.609375 C 17.476562 -32.609375 19.472656 -32.363281 21.421875 -31.875 C 23.378906 -31.382812 25.09375 -30.679688 26.5625 -29.765625 L 24.265625 -24.140625 C 21.304688 -25.816406 18.347656 -26.65625 15.390625 -26.65625 C 13.316406 -26.65625 11.78125 -26.316406 10.78125 -25.640625 C 9.789062 -24.972656 9.296875 -24.085938 9.296875 -22.984375 C 9.296875 -21.890625 9.867188 -21.070312 11.015625 -20.53125 C 12.160156 -20 13.910156 -19.472656 16.265625 -18.953125 C 18.703125 -18.378906 20.695312 -17.800781 22.25 -17.21875 C 23.8125 -16.632812 25.148438 -15.71875 26.265625 -14.46875 C 27.378906 -13.21875 27.9375 -11.523438 27.9375 -9.390625 C 27.9375 -7.554688 27.425781 -5.882812 26.40625 -4.375 C 25.382812 -2.863281 23.847656 -1.664062 21.796875 -0.78125 C 19.753906 0.101562 17.265625 0.546875 14.328125 0.546875 Z M 14.328125 0.546875 "/></g></g><g style="fill:#0cc0df;fill-opacity:1;"><g transform="translate(34.0732, 42.990714)"><path style="stroke:none" d="M 28.625 -5.953125 L 28.625 0 L 3.796875 0 L 3.796875 -32.0625 L 28.03125 -32.0625 L 28.03125 -26.109375 L 11.171875 -26.109375 L 11.171875 -19.140625 L 26.0625 -19.140625 L 26.0625 -13.375 L 11.171875 -13.375 L 11.171875 -5.953125 Z M 28.625 -5.953125 "/></g></g><g style="fill:#0cc0df;fill-opacity:1;"><g transform="translate(64.801229, 42.990714)"><path style="stroke:none" d="M 32.96875 0 L 32.921875 -19.234375 L 23.5 -3.390625 L 20.15625 -3.390625 L 10.765625 -18.828125 L 10.765625 0 L 3.796875 0 L 3.796875 -32.0625 L 9.9375 -32.0625 L 21.9375 -12.140625 L 33.75 -32.0625 L 39.84375 -32.0625 L 39.9375 0 Z M 32.96875 0 "/></g></g><g style="fill:#0cc0df;fill-opacity:1;"><g transform="translate(108.534869, 42.990714)"><path style="stroke:none" d="M 17.671875 -32.0625 C 20.515625 -32.0625 22.976562 -31.585938 25.0625 -30.640625 C 27.15625 -29.691406 28.765625 -28.347656 29.890625 -26.609375 C 31.023438 -24.867188 31.59375 -22.804688 31.59375 -20.421875 C 31.59375 -18.078125 31.023438 -16.023438 29.890625 -14.265625 C 28.765625 -12.503906 27.15625 -11.160156 25.0625 -10.234375 C 22.976562 -9.304688 20.515625 -8.84375 17.671875 -8.84375 L 11.21875 -8.84375 L 11.21875 0 L 3.796875 0 L 3.796875 -32.0625 Z M 17.265625 -14.890625 C 19.492188 -14.890625 21.1875 -15.367188 22.34375 -16.328125 C 23.507812 -17.285156 24.09375 -18.648438 24.09375 -20.421875 C 24.09375 -22.222656 23.507812 -23.601562 22.34375 -24.5625 C 21.1875 -25.53125 19.492188 -26.015625 17.265625 -26.015625 L 11.21875 -26.015625 L 11.21875 -14.890625 Z M 17.265625 -14.890625 "/></g></g><g style="fill:#0cc0df;fill-opacity:1;"><g transform="translate(142.056366, 42.990714)"><path style="stroke:none" d="M 3.796875 -32.0625 L 11.21875 -32.0625 L 11.21875 0 L 3.796875 0 Z M 3.796875 -32.0625 "/></g></g><g style="fill:#0cc0df;fill-opacity:1;"><g transform="translate(157.076925, 42.990714)"><path style="stroke:none" d="M 24.21875 0 L 18.046875 -8.9375 L 11.21875 -8.9375 L 11.21875 0 L 3.796875 0 L 3.796875 -32.0625 L 17.671875 -32.0625 C 20.515625 -32.0625 22.976562 -31.585938 25.0625 -30.640625 C 27.15625 -29.691406 28.765625 -28.347656 29.890625 -26.609375 C 31.023438 -24.867188 31.59375 -22.804688 31.59375 -20.421875 C 31.59375 -18.046875 31.019531 -15.992188 29.875 -14.265625 C 28.738281 -12.535156 27.113281 -11.210938 25 -10.296875 L 32.1875 0 Z M 24.09375 -20.421875 C 24.09375 -22.222656 23.507812 -23.601562 22.34375 -24.5625 C 21.1875 -25.53125 19.492188 -26.015625 17.265625 -26.015625 L 11.21875 -26.015625 L 11.21875 -14.84375 L 17.265625 -14.84375 C 19.492188 -14.84375 21.1875 -15.328125 22.34375 -16.296875 C 23.507812 -17.273438 24.09375 -18.648438 24.09375 -20.421875 Z M 24.09375 -20.421875 "/></g></g><g style="fill:#0cc0df;fill-opacity:1;"><g transform="translate(190.740335, 42.990714)"><path style="stroke:none" d=""/></g></g><g style="fill:#0cc0df;fill-opacity:1;"><g transform="translate(203.700148, 42.990714)"><path style="stroke:none" d=""/></g></g><g style="fill:#0cc0df;fill-opacity:1;"><g transform="translate(216.659961, 42.990714)"><path style="stroke:none" d=""/></g></g><g style="fill:#0cc0df;fill-opacity:1;"><g transform="translate(229.624401, 42.990714)"><path style="stroke:none" d="M 33.203125 -32.0625 L 33.203125 0 L 27.109375 0 L 11.125 -19.46875 L 11.125 0 L 3.796875 0 L 3.796875 -32.0625 L 9.9375 -32.0625 L 25.875 -12.59375 L 25.875 -32.0625 Z M 33.203125 -32.0625 "/></g></g><g style="fill:#0cc0df;fill-opacity:1;"><g transform="translate(266.626265, 42.990714)"><path style="stroke:none" d=""/></g></g><g style="fill:#ff3131;fill-opacity:1;"><g transform="translate(279.588335, 42.990714)"><path style="stroke:none" d="M 14.328125 0.546875 C 11.796875 0.546875 9.347656 0.203125 6.984375 -0.484375 C 4.617188 -1.171875 2.71875 -2.0625 1.28125 -3.15625 L 3.796875 -8.75 C 5.171875 -7.738281 6.804688 -6.925781 8.703125 -6.3125 C 10.597656 -5.707031 12.488281 -5.40625 14.375 -5.40625 C 16.488281 -5.40625 18.046875 -5.71875 19.046875 -6.34375 C 20.054688 -6.96875 20.5625 -7.800781 20.5625 -8.84375 C 20.5625 -9.601562 20.265625 -10.234375 19.671875 -10.734375 C 19.078125 -11.242188 18.3125 -11.648438 17.375 -11.953125 C 16.445312 -12.253906 15.191406 -12.585938 13.609375 -12.953125 C 11.160156 -13.535156 9.15625 -14.117188 7.59375 -14.703125 C 6.039062 -15.285156 4.707031 -16.21875 3.59375 -17.5 C 2.476562 -18.78125 1.921875 -20.488281 1.921875 -22.625 C 1.921875 -24.488281 2.425781 -26.175781 3.4375 -27.6875 C 4.445312 -29.195312 5.960938 -30.394531 7.984375 -31.28125 C 10.015625 -32.164062 12.5 -32.609375 15.4375 -32.609375 C 17.476562 -32.609375 19.472656 -32.363281 21.421875 -31.875 C 23.378906 -31.382812 25.09375 -30.679688 26.5625 -29.765625 L 24.265625 -24.140625 C 21.304688 -25.816406 18.347656 -26.65625 15.390625 -26.65625 C 13.316406 -26.65625 11.78125 -26.316406 10.78125 -25.640625 C 9.789062 -24.972656 9.296875 -24.085938 9.296875 -22.984375 C 9.296875 -21.890625 9.867188 -21.070312 11.015625 -20.53125 C 12.160156 -20 13.910156 -19.472656 16.265625 -18.953125 C 18.703125 -18.378906 20.695312 -17.800781 22.25 -17.21875 C 23.8125 -16.632812 25.148438 -15.71875 26.265625 -14.46875 C 27.378906 -13.21875 27.9375 -11.523438 27.9375 -9.390625 C 27.9375 -7.554688 27.425781 -5.882812 26.40625 -4.375 C 25.382812 -2.863281 23.847656 -1.664062 21.796875 -0.78125 C 19.753906 0.101562 17.265625 0.546875 14.328125 0.546875 Z M 14.328125 0.546875 "/></g></g><g style="fill:#ff3131;fill-opacity:1;"><g transform="translate(308.805156, 42.990714)"><path style="stroke:none" d="M 24.21875 0 L 18.046875 -8.9375 L 11.21875 -8.9375 L 11.21875 0 L 3.796875 0 L 3.796875 -32.0625 L 17.671875 -32.0625 C 20.515625 -32.0625 22.976562 -31.585938 25.0625 -30.640625 C 27.15625 -29.691406 28.765625 -28.347656 29.890625 -26.609375 C 31.023438 -24.867188 31.59375 -22.804688 31.59375 -20.421875 C 31.59375 -18.046875 31.019531 -15.992188 29.875 -14.265625 C 28.738281 -12.535156 27.113281 -11.210938 25 -10.296875 L 32.1875 0 Z M 24.09375 -20.421875 C 24.09375 -22.222656 23.507812 -23.601562 22.34375 -24.5625 C 21.1875 -25.53125 19.492188 -26.015625 17.265625 -26.015625 L 11.21875 -26.015625 L 11.21875 -14.84375 L 17.265625 -14.84375 C 19.492188 -14.84375 21.1875 -15.328125 22.34375 -16.296875 C 23.507812 -17.273438 24.09375 -18.648438 24.09375 -20.421875 Z M 24.09375 -20.421875 "/></g></g><g style="fill:#ff3131;fill-opacity:1;"><g transform="translate(342.464025, 42.990714)"><path style="stroke:none" d="M 3.796875 -32.0625 L 11.21875 -32.0625 L 11.21875 -6.046875 L 27.296875 -6.046875 L 27.296875 0 L 3.796875 0 Z M 3.796875 -32.0625 "/></g></g><g clip-rule="nonzero" clip-path="url(#402bdda63c)"><path style=" stroke:none;fill-rule:nonzero;fill:#ffffff;fill-opacity:1;" d="M 225.625 25.5 C 225.570312 24.980469 225.488281 24.464844 225.378906 23.957031 L 227.527344 22.523438 L 227.269531 21.742188 L 227.019531 20.964844 L 224.4375 21.066406 C 224.226562 20.585938 223.988281 20.125 223.726562 19.675781 L 225.324219 17.648438 L 224.84375 16.980469 L 224.359375 16.316406 L 221.9375 17.214844 C 221.761719 17.019531 221.585938 16.828125 221.398438 16.648438 C 221.214844 16.460938 221.023438 16.285156 220.832031 16.109375 L 221.730469 13.6875 L 221.0625 13.203125 L 220.398438 12.71875 L 218.371094 14.308594 C 217.921875 14.050781 217.457031 13.816406 216.980469 13.601562 L 217.082031 11.023438 L 216.304688 10.765625 L 215.523438 10.511719 L 214.089844 12.660156 C 213.582031 12.550781 213.066406 12.46875 212.546875 12.414062 L 211.839844 9.929688 L 210.195312 9.929688 L 209.492188 12.414062 C 208.972656 12.46875 208.457031 12.550781 207.949219 12.660156 L 206.515625 10.511719 L 205.734375 10.765625 L 204.957031 11.023438 L 205.058594 13.605469 C 204.578125 13.816406 204.117188 14.054688 203.667969 14.316406 L 201.640625 12.714844 L 200.972656 13.199219 L 200.308594 13.683594 L 201.207031 16.105469 C 201.011719 16.28125 200.820312 16.457031 200.640625 16.644531 C 200.453125 16.828125 200.277344 17.019531 200.101562 17.210938 L 197.679688 16.3125 L 197.195312 16.976562 L 196.714844 17.644531 L 198.3125 19.671875 C 198.050781 20.121094 197.816406 20.585938 197.601562 21.0625 L 195.019531 20.957031 L 194.765625 21.738281 L 194.507812 22.523438 L 196.65625 23.957031 C 196.546875 24.464844 196.464844 24.980469 196.410156 25.5 L 193.925781 26.199219 L 193.925781 27.84375 L 196.410156 28.542969 C 196.464844 29.066406 196.546875 29.582031 196.65625 30.089844 L 194.507812 31.523438 L 194.765625 32.300781 L 195.019531 33.082031 L 197.601562 32.980469 C 197.816406 33.457031 198.050781 33.921875 198.3125 34.371094 L 196.714844 36.398438 L 197.195312 37.0625 L 197.679688 37.730469 L 200.101562 36.832031 C 200.277344 37.027344 200.453125 37.210938 200.640625 37.398438 C 200.824219 37.585938 201.015625 37.761719 201.207031 37.933594 L 200.308594 40.359375 L 200.972656 40.84375 L 201.640625 41.324219 L 203.667969 39.726562 C 204.117188 39.988281 204.582031 40.222656 205.058594 40.4375 L 204.957031 43.019531 L 205.734375 43.273438 L 206.519531 43.53125 L 207.953125 41.382812 C 208.460938 41.492188 208.976562 41.574219 209.496094 41.625 L 210.199219 44.113281 L 211.84375 44.113281 L 212.546875 41.625 C 213.066406 41.574219 213.582031 41.492188 214.089844 41.382812 L 215.523438 43.53125 L 216.304688 43.273438 L 217.082031 43.019531 L 216.980469 40.4375 C 217.460938 40.226562 217.921875 39.988281 218.371094 39.726562 L 220.398438 41.324219 L 221.0625 40.84375 L 221.730469 40.359375 L 220.832031 37.933594 C 221.027344 37.761719 221.21875 37.585938 221.398438 37.398438 C 221.585938 37.210938 221.761719 37.023438 221.9375 36.832031 L 224.359375 37.730469 L 224.84375 37.0625 L 225.324219 36.398438 L 223.730469 34.375 C 223.992188 33.925781 224.226562 33.457031 224.441406 32.984375 L 227.023438 33.085938 L 227.277344 32.308594 L 227.535156 31.527344 L 225.386719 30.09375 C 225.496094 29.585938 225.578125 29.070312 225.632812 28.550781 L 228.117188 27.847656 L 228.117188 26.203125 Z M 211.015625 39.078125 C 204.359375 39.078125 198.964844 33.675781 198.964844 27.019531 C 198.964844 20.363281 204.359375 14.96875 211.015625 14.96875 C 217.675781 14.96875 223.070312 20.363281 223.070312 27.019531 C 223.070312 33.675781 217.675781 39.078125 211.015625 39.078125 Z M 211.015625 39.078125 "/></g><g style="fill:#ffffff;fill-opacity:1;"><g transform="translate(71.719398, 74.695058)"><path style="stroke:none" d="M 7.390625 0.328125 C 6.117188 0.328125 5.003906 0.0976562 4.046875 -0.359375 C 3.085938 -0.816406 2.332031 -1.46875 1.78125 -2.3125 C 1.238281 -3.164062 0.96875 -4.1875 0.96875 -5.375 L 4.59375 -5.375 C 4.59375 -4.570312 4.867188 -3.972656 5.421875 -3.578125 C 5.984375 -3.191406 6.628906 -3 7.359375 -3 C 7.816406 -3 8.242188 -3.070312 8.640625 -3.21875 C 9.046875 -3.375 9.378906 -3.597656 9.640625 -3.890625 C 9.898438 -4.179688 10.03125 -4.535156 10.03125 -4.953125 C 10.03125 -5.378906 9.878906 -5.710938 9.578125 -5.953125 C 9.285156 -6.203125 8.882812 -6.40625 8.375 -6.5625 C 7.875 -6.71875 7.320312 -6.863281 6.71875 -7 C 6.101562 -7.144531 5.472656 -7.316406 4.828125 -7.515625 C 4.179688 -7.722656 3.582031 -8 3.03125 -8.34375 C 2.476562 -8.6875 2.035156 -9.144531 1.703125 -9.71875 C 1.367188 -10.289062 1.203125 -11.019531 1.203125 -11.90625 C 1.203125 -13.5 1.742188 -14.722656 2.828125 -15.578125 C 3.910156 -16.441406 5.375 -16.875 7.21875 -16.875 C 9.113281 -16.875 10.582031 -16.394531 11.625 -15.4375 C 12.664062 -14.488281 13.1875 -13.191406 13.1875 -11.546875 L 9.640625 -11.546875 C 9.640625 -12.253906 9.382812 -12.78125 8.875 -13.125 C 8.375 -13.46875 7.789062 -13.640625 7.125 -13.640625 C 6.539062 -13.640625 6.003906 -13.507812 5.515625 -13.25 C 5.023438 -13 4.78125 -12.609375 4.78125 -12.078125 C 4.78125 -11.679688 4.925781 -11.367188 5.21875 -11.140625 C 5.507812 -10.910156 5.894531 -10.71875 6.375 -10.5625 C 6.851562 -10.414062 7.390625 -10.269531 7.984375 -10.125 C 8.609375 -9.96875 9.25 -9.78125 9.90625 -9.5625 C 10.570312 -9.351562 11.1875 -9.066406 11.75 -8.703125 C 12.320312 -8.347656 12.785156 -7.867188 13.140625 -7.265625 C 13.503906 -6.671875 13.6875 -5.914062 13.6875 -5 C 13.6875 -3.800781 13.394531 -2.804688 12.8125 -2.015625 C 12.238281 -1.222656 11.476562 -0.632812 10.53125 -0.25 C 9.582031 0.132812 8.535156 0.328125 7.390625 0.328125 Z M 7.390625 0.328125 "/></g></g><g style="fill:#ffffff;fill-opacity:1;"><g transform="translate(86.363689, 74.695058)"><path style="stroke:none" d="M 5.484375 -3.34375 L 12.09375 -3.34375 L 12.09375 0 L 1.890625 0 L 1.890625 -16.5625 L 11.828125 -16.5625 L 11.828125 -13.25 L 5.484375 -13.25 L 5.484375 -9.984375 L 11.21875 -9.984375 L 11.21875 -6.75 L 5.484375 -6.75 Z M 5.484375 -3.34375 "/></g></g><g style="fill:#ffffff;fill-opacity:1;"><g transform="translate(99.588505, 74.695058)"><path style="stroke:none" d="M 11 0 L 7.78125 -5.65625 L 5.484375 -5.65625 L 5.484375 0 L 1.890625 0 L 1.890625 -16.5625 L 8.59375 -16.5625 C 9.695312 -16.5625 10.679688 -16.328125 11.546875 -15.859375 C 12.421875 -15.390625 13.109375 -14.742188 13.609375 -13.921875 C 14.117188 -13.097656 14.375 -12.148438 14.375 -11.078125 C 14.375 -10.003906 14.097656 -9.046875 13.546875 -8.203125 C 13.003906 -7.359375 12.273438 -6.710938 11.359375 -6.265625 L 15.03125 0 Z M 5.484375 -13.25 L 5.484375 -8.96875 L 8.359375 -8.96875 C 9.097656 -8.96875 9.679688 -9.164062 10.109375 -9.5625 C 10.535156 -9.96875 10.75 -10.484375 10.75 -11.109375 C 10.75 -11.734375 10.535156 -12.242188 10.109375 -12.640625 C 9.679688 -13.046875 9.097656 -13.25 8.359375 -13.25 Z M 5.484375 -13.25 "/></g></g><g style="fill:#ffffff;fill-opacity:1;"><g transform="translate(114.611106, 74.695058)"><path style="stroke:none" d="M 12.40625 -16.5625 L 16.3125 -16.5625 L 10.0625 0 L 6.671875 0 L 0.1875 -16.5625 L 4.140625 -16.5625 L 8.328125 -4.859375 Z M 12.40625 -16.5625 "/></g></g><g style="fill:#ffffff;fill-opacity:1;"><g transform="translate(131.219011, 74.695058)"><path style="stroke:none" d="M 1.890625 0 L 1.890625 -16.5625 L 5.484375 -16.5625 L 5.484375 0 Z M 1.890625 0 "/></g></g><g style="fill:#ffffff;fill-opacity:1;"><g transform="translate(138.600304, 74.695058)"><path style="stroke:none" d="M 9.5 0.359375 C 8.28125 0.359375 7.148438 0.140625 6.109375 -0.296875 C 5.066406 -0.734375 4.15625 -1.34375 3.375 -2.125 C 2.601562 -2.90625 2.003906 -3.816406 1.578125 -4.859375 C 1.160156 -5.910156 0.953125 -7.046875 0.953125 -8.265625 C 0.953125 -9.492188 1.160156 -10.632812 1.578125 -11.6875 C 2.003906 -12.75 2.601562 -13.671875 3.375 -14.453125 C 4.15625 -15.234375 5.066406 -15.835938 6.109375 -16.265625 C 7.148438 -16.703125 8.28125 -16.921875 9.5 -16.921875 C 10.832031 -16.921875 12.054688 -16.644531 13.171875 -16.09375 C 14.296875 -15.539062 15.238281 -14.765625 16 -13.765625 C 16.757812 -12.773438 17.265625 -11.628906 17.515625 -10.328125 L 13.921875 -10.328125 C 13.585938 -11.296875 13.023438 -12.066406 12.234375 -12.640625 C 11.453125 -13.222656 10.539062 -13.515625 9.5 -13.515625 C 8.5625 -13.515625 7.722656 -13.28125 6.984375 -12.8125 C 6.242188 -12.351562 5.65625 -11.726562 5.21875 -10.9375 C 4.78125 -10.144531 4.5625 -9.253906 4.5625 -8.265625 C 4.5625 -7.265625 4.78125 -6.375 5.21875 -5.59375 C 5.65625 -4.8125 6.242188 -4.191406 6.984375 -3.734375 C 7.722656 -3.273438 8.5625 -3.046875 9.5 -3.046875 C 10.582031 -3.046875 11.519531 -3.351562 12.3125 -3.96875 C 13.101562 -4.59375 13.644531 -5.429688 13.9375 -6.484375 L 17.5625 -6.484375 C 17.3125 -5.109375 16.8125 -3.90625 16.0625 -2.875 C 15.3125 -1.851562 14.367188 -1.054688 13.234375 -0.484375 C 12.109375 0.078125 10.863281 0.359375 9.5 0.359375 Z M 9.5 0.359375 "/></g></g><g style="fill:#ffffff;fill-opacity:1;"><g transform="translate(156.840616, 74.695058)"><path style="stroke:none" d="M 5.484375 -3.34375 L 12.09375 -3.34375 L 12.09375 0 L 1.890625 0 L 1.890625 -16.5625 L 11.828125 -16.5625 L 11.828125 -13.25 L 5.484375 -13.25 L 5.484375 -9.984375 L 11.21875 -9.984375 L 11.21875 -6.75 L 5.484375 -6.75 Z M 5.484375 -3.34375 "/></g></g><g style="fill:#ffffff;fill-opacity:1;"><g transform="translate(170.065432, 74.695058)"><path style="stroke:none" d=""/></g></g><g style="fill:#ffffff;fill-opacity:1;"><g transform="translate(175.10436, 74.695058)"><path style="stroke:none" d="M 12.90625 0 L 11.734375 -3.140625 L 5.140625 -3.140625 L 4 0 L 0.21875 0 L 6.703125 -16.5625 L 10.078125 -16.5625 L 16.78125 0 Z M 8.421875 -12.1875 L 6.265625 -6.265625 L 10.609375 -6.265625 Z M 8.421875 -12.1875 "/></g></g><g style="fill:#ffffff;fill-opacity:1;"><g transform="translate(191.475457, 74.695058)"><path style="stroke:none" d="M 8.5625 0.359375 C 7.257812 0.359375 6.09375 0.078125 5.0625 -0.484375 C 4.039062 -1.046875 3.226562 -1.816406 2.625 -2.796875 C 2.03125 -3.785156 1.734375 -4.925781 1.734375 -6.21875 L 1.734375 -16.5625 L 5.328125 -16.5625 L 5.328125 -6.390625 C 5.328125 -5.367188 5.628906 -4.550781 6.234375 -3.9375 C 6.847656 -3.332031 7.625 -3.03125 8.5625 -3.03125 C 9.53125 -3.03125 10.316406 -3.332031 10.921875 -3.9375 C 11.523438 -4.550781 11.828125 -5.367188 11.828125 -6.390625 L 11.828125 -16.5625 L 15.40625 -16.5625 L 15.40625 -6.21875 C 15.40625 -4.925781 15.109375 -3.785156 14.515625 -2.796875 C 13.929688 -1.816406 13.117188 -1.046875 12.078125 -0.484375 C 11.046875 0.078125 9.875 0.359375 8.5625 0.359375 Z M 8.5625 0.359375 "/></g></g><g style="fill:#ffffff;fill-opacity:1;"><g transform="translate(208.603841, 74.695058)"><path style="stroke:none" d="M 13.328125 -16.5625 L 13.328125 -13.234375 L 8.71875 -13.234375 L 8.71875 0 L 5.109375 0 L 5.109375 -13.234375 L 0.515625 -13.234375 L 0.515625 -16.5625 Z M 13.328125 -16.5625 "/></g></g><g style="fill:#ffffff;fill-opacity:1;"><g transform="translate(221.899431, 74.695058)"><path style="stroke:none" d="M 9.75 0.359375 C 8.488281 0.359375 7.320312 0.140625 6.25 -0.296875 C 5.175781 -0.734375 4.238281 -1.34375 3.4375 -2.125 C 2.644531 -2.90625 2.023438 -3.816406 1.578125 -4.859375 C 1.140625 -5.910156 0.921875 -7.050781 0.921875 -8.28125 C 0.921875 -9.507812 1.140625 -10.648438 1.578125 -11.703125 C 2.023438 -12.753906 2.644531 -13.671875 3.4375 -14.453125 C 4.238281 -15.234375 5.175781 -15.835938 6.25 -16.265625 C 7.320312 -16.703125 8.488281 -16.921875 9.75 -16.921875 C 11.007812 -16.921875 12.175781 -16.703125 13.25 -16.265625 C 14.320312 -15.835938 15.253906 -15.234375 16.046875 -14.453125 C 16.835938 -13.671875 17.453125 -12.753906 17.890625 -11.703125 C 18.335938 -10.648438 18.5625 -9.507812 18.5625 -8.28125 C 18.5625 -7.050781 18.335938 -5.910156 17.890625 -4.859375 C 17.453125 -3.816406 16.835938 -2.90625 16.046875 -2.125 C 15.253906 -1.34375 14.320312 -0.734375 13.25 -0.296875 C 12.175781 0.140625 11.007812 0.359375 9.75 0.359375 Z M 9.75 -3.03125 C 10.75 -3.03125 11.640625 -3.257812 12.421875 -3.71875 C 13.203125 -4.175781 13.816406 -4.796875 14.265625 -5.578125 C 14.710938 -6.367188 14.9375 -7.269531 14.9375 -8.28125 C 14.9375 -9.28125 14.710938 -10.175781 14.265625 -10.96875 C 13.816406 -11.769531 13.203125 -12.398438 12.421875 -12.859375 C 11.640625 -13.316406 10.75 -13.546875 9.75 -13.546875 C 8.769531 -13.546875 7.882812 -13.316406 7.09375 -12.859375 C 6.3125 -12.398438 5.691406 -11.769531 5.234375 -10.96875 C 4.773438 -10.175781 4.546875 -9.28125 4.546875 -8.28125 C 4.546875 -7.289062 4.773438 -6.394531 5.234375 -5.59375 C 5.691406 -4.800781 6.3125 -4.175781 7.09375 -3.71875 C 7.882812 -3.257812 8.769531 -3.03125 9.75 -3.03125 Z M 9.75 -3.03125 "/></g></g><g style="fill:#ffffff;fill-opacity:1;"><g transform="translate(241.369955, 74.695058)"><path style="stroke:none" d=""/></g></g><g style="fill:#fb3937;fill-opacity:1;"><g transform="translate(247.034507, 74.695058)"><path style="stroke:none" d="M 15.25 0 L 11.53125 0 C 11.21875 -0.34375 10.925781 -0.675781 10.65625 -1 C 10.019531 -0.582031 9.320312 -0.265625 8.5625 -0.046875 C 7.8125 0.171875 7 0.28125 6.125 0.28125 C 5.101562 0.28125 4.203125 0.0820312 3.421875 -0.3125 C 2.640625 -0.707031 2.03125 -1.257812 1.59375 -1.96875 C 1.164062 -2.675781 0.953125 -3.503906 0.953125 -4.453125 C 0.953125 -5.617188 1.242188 -6.566406 1.828125 -7.296875 C 2.410156 -8.035156 3.085938 -8.664062 3.859375 -9.1875 C 3.222656 -10.082031 2.804688 -10.804688 2.609375 -11.359375 C 2.410156 -11.910156 2.3125 -12.414062 2.3125 -12.875 C 2.3125 -14.070312 2.742188 -15.03125 3.609375 -15.75 C 4.472656 -16.46875 5.601562 -16.828125 7 -16.828125 C 8.394531 -16.828125 9.515625 -16.46875 10.359375 -15.75 C 11.203125 -15.03125 11.625 -14.082031 11.625 -12.90625 C 11.625 -12.15625 11.445312 -11.507812 11.09375 -10.96875 C 10.75 -10.4375 10.304688 -9.96875 9.765625 -9.5625 C 9.222656 -9.15625 8.644531 -8.773438 8.03125 -8.421875 C 8.382812 -7.960938 8.78125 -7.472656 9.21875 -6.953125 C 9.65625 -6.429688 10.117188 -5.890625 10.609375 -5.328125 C 10.984375 -6.066406 11.210938 -6.898438 11.296875 -7.828125 L 14.203125 -7.828125 C 14.148438 -6.890625 13.992188 -6.003906 13.734375 -5.171875 C 13.472656 -4.335938 13.117188 -3.597656 12.671875 -2.953125 C 13.054688 -2.492188 13.46875 -2.015625 13.90625 -1.515625 C 14.34375 -1.023438 14.789062 -0.519531 15.25 0 Z M 7 -14.328125 C 6.507812 -14.328125 6.117188 -14.191406 5.828125 -13.921875 C 5.535156 -13.648438 5.390625 -13.296875 5.390625 -12.859375 C 5.390625 -12.367188 5.722656 -11.617188 6.390625 -10.609375 C 7.003906 -10.953125 7.523438 -11.296875 7.953125 -11.640625 C 8.378906 -11.992188 8.59375 -12.40625 8.59375 -12.875 C 8.59375 -13.300781 8.445312 -13.648438 8.15625 -13.921875 C 7.863281 -14.191406 7.476562 -14.328125 7 -14.328125 Z M 6.46875 -2.703125 C 7.269531 -2.703125 8 -2.882812 8.65625 -3.25 C 7.414062 -4.675781 6.394531 -5.894531 5.59375 -6.90625 C 5.175781 -6.582031 4.835938 -6.234375 4.578125 -5.859375 C 4.316406 -5.484375 4.1875 -5.050781 4.1875 -4.5625 C 4.1875 -4 4.394531 -3.546875 4.8125 -3.203125 C 5.226562 -2.867188 5.78125 -2.703125 6.46875 -2.703125 Z M 6.46875 -2.703125 "/></g></g><g style="fill:#ffffff;fill-opacity:1;"><g transform="translate(261.679905, 74.695058)"><path style="stroke:none" d=""/></g></g><g style="fill:#33bedd;fill-opacity:1;"><g transform="translate(267.335984, 74.695058)"><path style="stroke:none" d="M 1.890625 0 L 1.890625 -16.5625 L 5.484375 -16.5625 L 5.484375 0 Z M 1.890625 0 "/></g></g><g style="fill:#33bedd;fill-opacity:1;"><g transform="translate(274.717278, 74.695058)"><path style="stroke:none" d="M 13.328125 -16.5625 L 13.328125 -13.234375 L 8.71875 -13.234375 L 8.71875 0 L 5.109375 0 L 5.109375 -13.234375 L 0.515625 -13.234375 L 0.515625 -16.5625 Z M 13.328125 -16.5625 "/></g></g><g style="fill:#33bedd;fill-opacity:1;"><g transform="translate(288.533541, 74.695058)"><path style="stroke:none" d="M 8.265625 -16.5625 C 9.378906 -16.5625 10.375 -16.3125 11.25 -15.8125 C 12.125 -15.320312 12.820312 -14.644531 13.34375 -13.78125 C 13.863281 -12.925781 14.125 -11.953125 14.125 -10.859375 C 14.125 -9.773438 13.867188 -8.800781 13.359375 -7.9375 C 12.847656 -7.082031 12.148438 -6.410156 11.265625 -5.921875 C 10.378906 -5.429688 9.378906 -5.1875 8.265625 -5.1875 L 5.484375 -5.1875 L 5.484375 0 L 1.890625 0 L 1.890625 -16.5625 Z M 8.125 -8.5 C 8.832031 -8.5 9.398438 -8.722656 9.828125 -9.171875 C 10.265625 -9.617188 10.484375 -10.179688 10.484375 -10.859375 C 10.484375 -11.554688 10.265625 -12.128906 9.828125 -12.578125 C 9.398438 -13.023438 8.832031 -13.25 8.125 -13.25 L 5.484375 -13.25 L 5.484375 -8.5 Z M 8.125 -8.5 "/></g></g></g></svg>