<svg xmlns="http://www.w3.org/2000/svg" xmlns:xlink="http://www.w3.org/1999/xlink" width="500" zoomAndPan="magnify" viewBox="0 0 375 142.499996" height="190" preserveAspectRatio="xMidYMid meet" version="1.2"><defs><clipPath id="3bccbe1a01"><path d="M 1 4 L 374.34375 4 L 374.34375 104 L 1 104 Z M 1 4 "/></clipPath></defs><g id="d84277347f"><g clip-rule="nonzero" clip-path="url(#3bccbe1a01)"><path style=" stroke:none;fill-rule:evenodd;fill:#ffffff;fill-opacity:1;" d="M 4.722656 66.089844 C 26.113281 38.734375 72.214844 31.835938 123.074219 32.46875 C 149.601562 18.308594 169.863281 8.796875 190.097656 5.71875 C 227.679688 0 278.867188 16.851562 315.566406 25.347656 C 303.773438 26.035156 292.613281 27.078125 282.386719 28.675781 C 326.042969 26.804688 356.253906 28.5625 374.34375 33.648438 C 367.140625 38.570312 358.730469 43.355469 350.921875 47.339844 C 353.5625 53.691406 355.429688 60.152344 355.871094 67.300781 C 348.449219 47.3125 330.714844 37.609375 311.308594 48.109375 C 284.007812 43.820312 254.675781 40.054688 226.742188 37.332031 C 230.179688 36.015625 233.480469 34.0625 235.484375 31.53125 C 213.109375 32.441406 190.34375 33.980469 169.863281 35.792969 C 204.503906 38.242188 238.457031 42.996094 271.527344 48.605469 C 218.359375 44.152344 155.898438 33.210938 115.128906 39.011719 C 137.039062 40.6875 161.917969 44.480469 178.167969 50.722656 C 145.453125 44.617188 114.167969 41.980469 93.355469 48.824219 C 77.300781 41.648438 62.097656 46.269531 47.609375 61.855469 C 49.175781 57.566406 50.003906 53.445312 49.398438 49.789062 C 44.777344 55.476562 38.042969 59.792969 29.4375 62.542969 C 22.429688 64.769531 16.628906 61.222656 4.722656 66.089844 Z M 137.945312 31.972656 C 180.394531 4.289062 221.191406 8 261.988281 20.867188 C 254.070312 23.230469 247.363281 26.558594 242.332031 31.148438 C 208.214844 28.703125 169.890625 33.621094 137.945312 31.972656 Z M 14.511719 60.867188 C 23.472656 54.046875 35.101562 49.402344 48.519531 46.1875 C 44.421875 51.519531 38.234375 56.109375 30.511719 60.179688 C 26.828125 60.371094 23.664062 59.464844 20.339844 59.574219 C 18.277344 59.410156 16.378906 59.988281 14.511719 60.867188 Z M 39.253906 60.507812 C 35.210938 65.042969 31.777344 69.71875 30.265625 74.859375 C 34.25 79.039062 38.457031 83.050781 36.640625 91.792969 C 39.941406 97.816406 39.035156 101.140625 34.03125 102.074219 C 15.941406 104.414062 0.65625 104.632812 2.195312 87.285156 C 9.179688 89.648438 17.589844 88.714844 23.144531 91.902344 C 9.507812 90.5 7.527344 95.476562 13.6875 97.703125 C 20.585938 98.886719 26.359375 98.96875 28.863281 96.796875 C 36.53125 90.171875 24.050781 86.296875 19.128906 85.472656 C 14.511719 84.671875 9.398438 84.730469 3.953125 85.113281 C 4.285156 79.835938 3.515625 74.941406 1.949219 70.324219 C 7.308594 74.144531 14.621094 74.199219 20.3125 73.757812 C 25.121094 69.167969 32.050781 64.441406 39.253906 60.507812 Z M 39.253906 60.507812 "/></g><g style="fill:#0cc0df;fill-opacity:1;"><g transform="translate(51.767599, 93.714663)"><path style="stroke:none" d="M 11.828125 0.453125 C 9.734375 0.453125 7.707031 0.171875 5.75 -0.390625 C 3.800781 -0.960938 2.238281 -1.703125 1.0625 -2.609375 L 3.140625 -7.21875 C 4.273438 -6.382812 5.625 -5.710938 7.1875 -5.203125 C 8.75 -4.703125 10.3125 -4.453125 11.875 -4.453125 C 13.601562 -4.453125 14.882812 -4.710938 15.71875 -5.234375 C 16.550781 -5.753906 16.96875 -6.441406 16.96875 -7.296875 C 16.96875 -7.921875 16.722656 -8.441406 16.234375 -8.859375 C 15.742188 -9.273438 15.113281 -9.609375 14.34375 -9.859375 C 13.570312 -10.117188 12.53125 -10.398438 11.21875 -10.703125 C 9.207031 -11.179688 7.554688 -11.65625 6.265625 -12.125 C 4.984375 -12.601562 3.882812 -13.375 2.96875 -14.4375 C 2.050781 -15.5 1.59375 -16.910156 1.59375 -18.671875 C 1.59375 -20.210938 2.003906 -21.601562 2.828125 -22.84375 C 3.660156 -24.09375 4.914062 -25.082031 6.59375 -25.8125 C 8.269531 -26.539062 10.316406 -26.90625 12.734375 -26.90625 C 14.421875 -26.90625 16.070312 -26.703125 17.6875 -26.296875 C 19.300781 -25.898438 20.710938 -25.320312 21.921875 -24.5625 L 20.03125 -19.921875 C 17.582031 -21.304688 15.140625 -22 12.703125 -22 C 10.984375 -22 9.710938 -21.71875 8.890625 -21.15625 C 8.078125 -20.601562 7.671875 -19.875 7.671875 -18.96875 C 7.671875 -18.0625 8.140625 -17.390625 9.078125 -16.953125 C 10.023438 -16.515625 11.472656 -16.078125 13.421875 -15.640625 C 15.429688 -15.171875 17.078125 -14.695312 18.359375 -14.21875 C 19.648438 -13.738281 20.753906 -12.976562 21.671875 -11.9375 C 22.597656 -10.90625 23.0625 -9.507812 23.0625 -7.75 C 23.0625 -6.238281 22.640625 -4.859375 21.796875 -3.609375 C 20.953125 -2.359375 19.679688 -1.367188 17.984375 -0.640625 C 16.296875 0.0859375 14.242188 0.453125 11.828125 0.453125 Z M 11.828125 0.453125 "/></g></g><g style="fill:#0cc0df;fill-opacity:1;"><g transform="translate(75.880139, 93.714663)"><path style="stroke:none" d="M 23.625 -4.90625 L 23.625 0 L 3.140625 0 L 3.140625 -26.453125 L 23.125 -26.453125 L 23.125 -21.546875 L 9.21875 -21.546875 L 9.21875 -15.796875 L 21.5 -15.796875 L 21.5 -11.03125 L 9.21875 -11.03125 L 9.21875 -4.90625 Z M 23.625 -4.90625 "/></g></g><g style="fill:#0cc0df;fill-opacity:1;"><g transform="translate(101.239882, 93.714663)"><path style="stroke:none" d="M 27.21875 0 L 27.171875 -15.875 L 19.390625 -2.796875 L 16.625 -2.796875 L 8.875 -15.53125 L 8.875 0 L 3.140625 0 L 3.140625 -26.453125 L 8.203125 -26.453125 L 18.109375 -10.015625 L 27.859375 -26.453125 L 32.890625 -26.453125 L 32.953125 0 Z M 27.21875 0 "/></g></g><g style="fill:#0cc0df;fill-opacity:1;"><g transform="translate(137.333122, 93.714663)"><path style="stroke:none" d="M 14.59375 -26.453125 C 16.9375 -26.453125 18.96875 -26.0625 20.6875 -25.28125 C 22.414062 -24.5 23.742188 -23.390625 24.671875 -21.953125 C 25.609375 -20.523438 26.078125 -18.828125 26.078125 -16.859375 C 26.078125 -14.921875 25.609375 -13.222656 24.671875 -11.765625 C 23.742188 -10.316406 22.414062 -9.207031 20.6875 -8.4375 C 18.96875 -7.675781 16.9375 -7.296875 14.59375 -7.296875 L 9.265625 -7.296875 L 9.265625 0 L 3.140625 0 L 3.140625 -26.453125 Z M 14.25 -12.28125 C 16.09375 -12.28125 17.488281 -12.675781 18.4375 -13.46875 C 19.394531 -14.269531 19.875 -15.398438 19.875 -16.859375 C 19.875 -18.347656 19.394531 -19.488281 18.4375 -20.28125 C 17.488281 -21.070312 16.09375 -21.46875 14.25 -21.46875 L 9.265625 -21.46875 L 9.265625 -12.28125 Z M 14.25 -12.28125 "/></g></g><g style="fill:#0cc0df;fill-opacity:1;"><g transform="translate(164.998295, 93.714663)"><path style="stroke:none" d="M 3.140625 -26.453125 L 9.265625 -26.453125 L 9.265625 0 L 3.140625 0 Z M 3.140625 -26.453125 "/></g></g><g style="fill:#0cc0df;fill-opacity:1;"><g transform="translate(177.394708, 93.714663)"><path style="stroke:none" d="M 20 0 L 14.890625 -7.375 L 9.265625 -7.375 L 9.265625 0 L 3.140625 0 L 3.140625 -26.453125 L 14.59375 -26.453125 C 16.9375 -26.453125 18.96875 -26.0625 20.6875 -25.28125 C 22.414062 -24.5 23.742188 -23.390625 24.671875 -21.953125 C 25.609375 -20.523438 26.078125 -18.828125 26.078125 -16.859375 C 26.078125 -14.890625 25.601562 -13.191406 24.65625 -11.765625 C 23.71875 -10.347656 22.378906 -9.257812 20.640625 -8.5 L 26.578125 0 Z M 19.875 -16.859375 C 19.875 -18.347656 19.394531 -19.488281 18.4375 -20.28125 C 17.488281 -21.070312 16.09375 -21.46875 14.25 -21.46875 L 9.265625 -21.46875 L 9.265625 -12.25 L 14.25 -12.25 C 16.09375 -12.25 17.488281 -12.648438 18.4375 -13.453125 C 19.394531 -14.265625 19.875 -15.398438 19.875 -16.859375 Z M 19.875 -16.859375 "/></g></g><g style="fill:#0cc0df;fill-opacity:1;"><g transform="translate(205.173265, 93.714663)"><path style="stroke:none" d="M 15.953125 0.453125 C 13.203125 0.453125 10.722656 -0.132812 8.515625 -1.3125 C 6.316406 -2.5 4.59375 -4.128906 3.34375 -6.203125 C 2.09375 -8.285156 1.46875 -10.628906 1.46875 -13.234375 C 1.46875 -15.828125 2.09375 -18.160156 3.34375 -20.234375 C 4.59375 -22.316406 6.316406 -23.945312 8.515625 -25.125 C 10.722656 -26.3125 13.203125 -26.90625 15.953125 -26.90625 C 18.691406 -26.90625 21.15625 -26.3125 23.34375 -25.125 C 25.539062 -23.945312 27.269531 -22.316406 28.53125 -20.234375 C 29.789062 -18.160156 30.421875 -15.828125 30.421875 -13.234375 C 30.421875 -10.628906 29.789062 -8.285156 28.53125 -6.203125 C 27.269531 -4.128906 25.539062 -2.5 23.34375 -1.3125 C 21.15625 -0.132812 18.691406 0.453125 15.953125 0.453125 Z M 15.953125 -4.765625 C 17.515625 -4.765625 18.925781 -5.125 20.1875 -5.84375 C 21.445312 -6.5625 22.4375 -7.5625 23.15625 -8.84375 C 23.875 -10.125 24.234375 -11.585938 24.234375 -13.234375 C 24.234375 -14.867188 23.875 -16.328125 23.15625 -17.609375 C 22.4375 -18.898438 21.445312 -19.90625 20.1875 -20.625 C 18.925781 -21.34375 17.515625 -21.703125 15.953125 -21.703125 C 14.390625 -21.703125 12.976562 -21.34375 11.71875 -20.625 C 10.457031 -19.90625 9.46875 -18.898438 8.75 -17.609375 C 8.03125 -16.328125 7.671875 -14.867188 7.671875 -13.234375 C 7.671875 -11.585938 8.03125 -10.125 8.75 -8.84375 C 9.46875 -7.5625 10.457031 -6.5625 11.71875 -5.84375 C 12.976562 -5.125 14.390625 -4.765625 15.953125 -4.765625 Z M 15.953125 -4.765625 "/></g></g><g style="fill:#0cc0df;fill-opacity:1;"><g transform="translate(237.071374, 93.714663)"><path style="stroke:none" d="M 27.40625 -26.453125 L 27.40625 0 L 22.375 0 L 9.1875 -16.0625 L 9.1875 0 L 3.140625 0 L 3.140625 -26.453125 L 8.203125 -26.453125 L 21.359375 -10.390625 L 21.359375 -26.453125 Z M 27.40625 -26.453125 "/></g></g><g style="fill:#0cc0df;fill-opacity:1;"><g transform="translate(267.608896, 93.714663)"><path style="stroke:none" d=""/></g></g><g style="fill:#ff3131;fill-opacity:1;"><g transform="translate(278.318031, 93.714663)"><path style="stroke:none" d="M 11.828125 0.453125 C 9.734375 0.453125 7.707031 0.171875 5.75 -0.390625 C 3.800781 -0.960938 2.238281 -1.703125 1.0625 -2.609375 L 3.140625 -7.21875 C 4.273438 -6.382812 5.625 -5.710938 7.1875 -5.203125 C 8.75 -4.703125 10.3125 -4.453125 11.875 -4.453125 C 13.601562 -4.453125 14.882812 -4.710938 15.71875 -5.234375 C 16.550781 -5.753906 16.96875 -6.441406 16.96875 -7.296875 C 16.96875 -7.921875 16.722656 -8.441406 16.234375 -8.859375 C 15.742188 -9.273438 15.113281 -9.609375 14.34375 -9.859375 C 13.570312 -10.117188 12.53125 -10.398438 11.21875 -10.703125 C 9.207031 -11.179688 7.554688 -11.65625 6.265625 -12.125 C 4.984375 -12.601562 3.882812 -13.375 2.96875 -14.4375 C 2.050781 -15.5 1.59375 -16.910156 1.59375 -18.671875 C 1.59375 -20.210938 2.003906 -21.601562 2.828125 -22.84375 C 3.660156 -24.09375 4.914062 -25.082031 6.59375 -25.8125 C 8.269531 -26.539062 10.316406 -26.90625 12.734375 -26.90625 C 14.421875 -26.90625 16.070312 -26.703125 17.6875 -26.296875 C 19.300781 -25.898438 20.710938 -25.320312 21.921875 -24.5625 L 20.03125 -19.921875 C 17.582031 -21.304688 15.140625 -22 12.703125 -22 C 10.984375 -22 9.710938 -21.71875 8.890625 -21.15625 C 8.078125 -20.601562 7.671875 -19.875 7.671875 -18.96875 C 7.671875 -18.0625 8.140625 -17.390625 9.078125 -16.953125 C 10.023438 -16.515625 11.472656 -16.078125 13.421875 -15.640625 C 15.429688 -15.171875 17.078125 -14.695312 18.359375 -14.21875 C 19.648438 -13.738281 20.753906 -12.976562 21.671875 -11.9375 C 22.597656 -10.90625 23.0625 -9.507812 23.0625 -7.75 C 23.0625 -6.238281 22.640625 -4.859375 21.796875 -3.609375 C 20.953125 -2.359375 19.679688 -1.367188 17.984375 -0.640625 C 16.296875 0.0859375 14.242188 0.453125 11.828125 0.453125 Z M 11.828125 0.453125 "/></g></g><g style="fill:#ff3131;fill-opacity:1;"><g transform="translate(302.430571, 93.714663)"><path style="stroke:none" d="M 20 0 L 14.890625 -7.375 L 9.265625 -7.375 L 9.265625 0 L 3.140625 0 L 3.140625 -26.453125 L 14.59375 -26.453125 C 16.9375 -26.453125 18.96875 -26.0625 20.6875 -25.28125 C 22.414062 -24.5 23.742188 -23.390625 24.671875 -21.953125 C 25.609375 -20.523438 26.078125 -18.828125 26.078125 -16.859375 C 26.078125 -14.890625 25.601562 -13.191406 24.65625 -11.765625 C 23.71875 -10.347656 22.378906 -9.257812 20.640625 -8.5 L 26.578125 0 Z M 19.875 -16.859375 C 19.875 -18.347656 19.394531 -19.488281 18.4375 -20.28125 C 17.488281 -21.070312 16.09375 -21.46875 14.25 -21.46875 L 9.265625 -21.46875 L 9.265625 -12.25 L 14.25 -12.25 C 16.09375 -12.25 17.488281 -12.648438 18.4375 -13.453125 C 19.394531 -14.265625 19.875 -15.398438 19.875 -16.859375 Z M 19.875 -16.859375 "/></g></g><g style="fill:#ff3131;fill-opacity:1;"><g transform="translate(330.209128, 93.714663)"><path style="stroke:none" d="M 3.140625 -26.453125 L 9.265625 -26.453125 L 9.265625 -4.984375 L 22.53125 -4.984375 L 22.53125 0 L 3.140625 0 Z M 3.140625 -26.453125 "/></g></g><g style="fill:#ffffff;fill-opacity:1;"><g transform="translate(59.734008, 130.043697)"><path style="stroke:none" d="M 7.453125 0.28125 C 6.128906 0.28125 4.851562 0.101562 3.625 -0.25 C 2.394531 -0.601562 1.410156 -1.066406 0.671875 -1.640625 L 1.96875 -4.546875 C 2.6875 -4.023438 3.535156 -3.601562 4.515625 -3.28125 C 5.503906 -2.96875 6.488281 -2.8125 7.46875 -2.8125 C 8.5625 -2.8125 9.367188 -2.972656 9.890625 -3.296875 C 10.421875 -3.617188 10.6875 -4.050781 10.6875 -4.59375 C 10.6875 -4.988281 10.53125 -5.316406 10.21875 -5.578125 C 9.90625 -5.835938 9.507812 -6.046875 9.03125 -6.203125 C 8.550781 -6.367188 7.894531 -6.546875 7.0625 -6.734375 C 5.789062 -7.035156 4.75 -7.335938 3.9375 -7.640625 C 3.132812 -7.941406 2.441406 -8.425781 1.859375 -9.09375 C 1.285156 -9.757812 1 -10.644531 1 -11.75 C 1 -12.71875 1.257812 -13.59375 1.78125 -14.375 C 2.300781 -15.164062 3.085938 -15.789062 4.140625 -16.25 C 5.203125 -16.707031 6.492188 -16.9375 8.015625 -16.9375 C 9.078125 -16.9375 10.113281 -16.8125 11.125 -16.5625 C 12.144531 -16.3125 13.035156 -15.945312 13.796875 -15.46875 L 12.609375 -12.546875 C 11.066406 -13.410156 9.53125 -13.84375 8 -13.84375 C 6.914062 -13.84375 6.113281 -13.664062 5.59375 -13.3125 C 5.082031 -12.96875 4.828125 -12.515625 4.828125 -11.953125 C 4.828125 -11.378906 5.125 -10.953125 5.71875 -10.671875 C 6.3125 -10.390625 7.222656 -10.117188 8.453125 -9.859375 C 9.722656 -9.554688 10.757812 -9.253906 11.5625 -8.953125 C 12.375 -8.648438 13.066406 -8.171875 13.640625 -7.515625 C 14.222656 -6.867188 14.515625 -5.988281 14.515625 -4.875 C 14.515625 -3.925781 14.25 -3.054688 13.71875 -2.265625 C 13.1875 -1.484375 12.390625 -0.863281 11.328125 -0.40625 C 10.265625 0.0507812 8.972656 0.28125 7.453125 0.28125 Z M 7.453125 0.28125 "/></g></g><g style="fill:#ffffff;fill-opacity:1;"><g transform="translate(74.910531, 130.043697)"><path style="stroke:none" d="M 14.875 -3.09375 L 14.875 0 L 1.96875 0 L 1.96875 -16.65625 L 14.5625 -16.65625 L 14.5625 -13.5625 L 5.8125 -13.5625 L 5.8125 -9.953125 L 13.546875 -9.953125 L 13.546875 -6.953125 L 5.8125 -6.953125 L 5.8125 -3.09375 Z M 14.875 -3.09375 "/></g></g><g style="fill:#ffffff;fill-opacity:1;"><g transform="translate(90.872053, 130.043697)"><path style="stroke:none" d="M 12.59375 0 L 9.375 -4.640625 L 5.828125 -4.640625 L 5.828125 0 L 1.96875 0 L 1.96875 -16.65625 L 9.1875 -16.65625 C 10.664062 -16.65625 11.945312 -16.410156 13.03125 -15.921875 C 14.113281 -15.429688 14.945312 -14.734375 15.53125 -13.828125 C 16.125 -12.921875 16.421875 -11.847656 16.421875 -10.609375 C 16.421875 -9.367188 16.125 -8.300781 15.53125 -7.40625 C 14.9375 -6.507812 14.09375 -5.828125 13 -5.359375 L 16.734375 0 Z M 12.515625 -10.609375 C 12.515625 -11.546875 12.210938 -12.265625 11.609375 -12.765625 C 11.003906 -13.265625 10.125 -13.515625 8.96875 -13.515625 L 5.828125 -13.515625 L 5.828125 -7.703125 L 8.96875 -7.703125 C 10.125 -7.703125 11.003906 -7.957031 11.609375 -8.46875 C 12.210938 -8.976562 12.515625 -9.691406 12.515625 -10.609375 Z M 12.515625 -10.609375 "/></g></g><g style="fill:#ffffff;fill-opacity:1;"><g transform="translate(108.355985, 130.043697)"><path style="stroke:none" d="M 17.984375 -16.65625 L 10.78125 0 L 6.96875 0 L -0.21875 -16.65625 L 3.953125 -16.65625 L 9.015625 -4.765625 L 14.15625 -16.65625 Z M 17.984375 -16.65625 "/></g></g><g style="fill:#ffffff;fill-opacity:1;"><g transform="translate(125.744625, 130.043697)"><path style="stroke:none" d="M 1.96875 -16.65625 L 5.828125 -16.65625 L 5.828125 0 L 1.96875 0 Z M 1.96875 -16.65625 "/></g></g><g style="fill:#ffffff;fill-opacity:1;"><g transform="translate(133.546974, 130.043697)"><path style="stroke:none" d="M 9.953125 0.28125 C 8.253906 0.28125 6.71875 -0.0820312 5.34375 -0.8125 C 3.96875 -1.550781 2.882812 -2.578125 2.09375 -3.890625 C 1.3125 -5.203125 0.921875 -6.679688 0.921875 -8.328125 C 0.921875 -9.972656 1.3125 -11.453125 2.09375 -12.765625 C 2.882812 -14.078125 3.96875 -15.097656 5.34375 -15.828125 C 6.71875 -16.566406 8.257812 -16.9375 9.96875 -16.9375 C 11.414062 -16.9375 12.722656 -16.679688 13.890625 -16.171875 C 15.054688 -15.671875 16.035156 -14.945312 16.828125 -14 L 14.34375 -11.703125 C 13.21875 -13.003906 11.820312 -13.65625 10.15625 -13.65625 C 9.125 -13.65625 8.203125 -13.425781 7.390625 -12.96875 C 6.585938 -12.519531 5.957031 -11.890625 5.5 -11.078125 C 5.050781 -10.273438 4.828125 -9.359375 4.828125 -8.328125 C 4.828125 -7.296875 5.050781 -6.375 5.5 -5.5625 C 5.957031 -4.757812 6.585938 -4.128906 7.390625 -3.671875 C 8.203125 -3.222656 9.125 -3 10.15625 -3 C 11.820312 -3 13.21875 -3.65625 14.34375 -4.96875 L 16.828125 -2.6875 C 16.035156 -1.71875 15.050781 -0.976562 13.875 -0.46875 C 12.695312 0.03125 11.390625 0.28125 9.953125 0.28125 Z M 9.953125 0.28125 "/></g></g><g style="fill:#ffffff;fill-opacity:1;"><g transform="translate(150.983329, 130.043697)"><path style="stroke:none" d="M 14.875 -3.09375 L 14.875 0 L 1.96875 0 L 1.96875 -16.65625 L 14.5625 -16.65625 L 14.5625 -13.5625 L 5.8125 -13.5625 L 5.8125 -9.953125 L 13.546875 -9.953125 L 13.546875 -6.953125 L 5.8125 -6.953125 L 5.8125 -3.09375 Z M 14.875 -3.09375 "/></g></g><g style="fill:#ffffff;fill-opacity:1;"><g transform="translate(166.944851, 130.043697)"><path style="stroke:none" d=""/></g></g><g style="fill:#ffffff;fill-opacity:1;"><g transform="translate(173.676758, 130.043697)"><path style="stroke:none" d="M 12.953125 -3.5625 L 5.21875 -3.5625 L 3.734375 0 L -0.21875 0 L 7.203125 -16.65625 L 11.015625 -16.65625 L 18.46875 0 L 14.421875 0 Z M 11.734375 -6.5 L 9.09375 -12.875 L 6.453125 -6.5 Z M 11.734375 -6.5 "/></g></g><g style="fill:#ffffff;fill-opacity:1;"><g transform="translate(191.541152, 130.043697)"><path style="stroke:none" d="M 9.375 0.28125 C 7 0.28125 5.144531 -0.375 3.8125 -1.6875 C 2.488281 -3.007812 1.828125 -4.890625 1.828125 -7.328125 L 1.828125 -16.65625 L 5.6875 -16.65625 L 5.6875 -7.46875 C 5.6875 -4.488281 6.925781 -3 9.40625 -3 C 10.601562 -3 11.519531 -3.359375 12.15625 -4.078125 C 12.789062 -4.796875 13.109375 -5.925781 13.109375 -7.46875 L 13.109375 -16.65625 L 16.921875 -16.65625 L 16.921875 -7.328125 C 16.921875 -4.890625 16.257812 -3.007812 14.9375 -1.6875 C 13.613281 -0.375 11.757812 0.28125 9.375 0.28125 Z M 9.375 0.28125 "/></g></g><g style="fill:#ffffff;fill-opacity:1;"><g transform="translate(210.00027, 130.043697)"><path style="stroke:none" d="M 5.421875 -13.515625 L 0.09375 -13.515625 L 0.09375 -16.65625 L 14.609375 -16.65625 L 14.609375 -13.515625 L 9.28125 -13.515625 L 9.28125 0 L 5.421875 0 Z M 5.421875 -13.515625 "/></g></g><g style="fill:#ffffff;fill-opacity:1;"><g transform="translate(224.463069, 130.043697)"><path style="stroke:none" d="M 10.046875 0.28125 C 8.316406 0.28125 6.753906 -0.0859375 5.359375 -0.828125 C 3.972656 -1.578125 2.882812 -2.601562 2.09375 -3.90625 C 1.3125 -5.21875 0.921875 -6.691406 0.921875 -8.328125 C 0.921875 -9.960938 1.3125 -11.429688 2.09375 -12.734375 C 2.882812 -14.046875 3.972656 -15.070312 5.359375 -15.8125 C 6.753906 -16.5625 8.316406 -16.9375 10.046875 -16.9375 C 11.773438 -16.9375 13.328125 -16.5625 14.703125 -15.8125 C 16.085938 -15.070312 17.175781 -14.046875 17.96875 -12.734375 C 18.757812 -11.429688 19.15625 -9.960938 19.15625 -8.328125 C 19.15625 -6.691406 18.757812 -5.21875 17.96875 -3.90625 C 17.175781 -2.601562 16.085938 -1.578125 14.703125 -0.828125 C 13.328125 -0.0859375 11.773438 0.28125 10.046875 0.28125 Z M 10.046875 -3 C 11.023438 -3 11.910156 -3.222656 12.703125 -3.671875 C 13.492188 -4.128906 14.113281 -4.757812 14.5625 -5.5625 C 15.019531 -6.375 15.25 -7.296875 15.25 -8.328125 C 15.25 -9.359375 15.019531 -10.273438 14.5625 -11.078125 C 14.113281 -11.890625 13.492188 -12.519531 12.703125 -12.96875 C 11.910156 -13.425781 11.023438 -13.65625 10.046875 -13.65625 C 9.054688 -13.65625 8.164062 -13.425781 7.375 -12.96875 C 6.582031 -12.519531 5.957031 -11.890625 5.5 -11.078125 C 5.050781 -10.273438 4.828125 -9.359375 4.828125 -8.328125 C 4.828125 -7.296875 5.050781 -6.375 5.5 -5.5625 C 5.957031 -4.757812 6.582031 -4.128906 7.375 -3.671875 C 8.164062 -3.222656 9.054688 -3 10.046875 -3 Z M 10.046875 -3 "/></g></g><g style="fill:#ffffff;fill-opacity:1;"><g transform="translate(244.539854, 130.043697)"><path style="stroke:none" d=""/></g></g><g style="fill:#fb3937;fill-opacity:1;"><g transform="translate(251.272866, 130.043697)"><path style="stroke:none" d="M 14.78125 0.28125 L 12.78125 -1.578125 C 11.195312 -0.335938 9.335938 0.28125 7.203125 0.28125 C 6.003906 0.28125 4.921875 0.0859375 3.953125 -0.296875 C 2.984375 -0.679688 2.222656 -1.222656 1.671875 -1.921875 C 1.128906 -2.617188 0.859375 -3.40625 0.859375 -4.28125 C 0.859375 -5.3125 1.144531 -6.21875 1.71875 -7 C 2.300781 -7.789062 3.234375 -8.539062 4.515625 -9.25 C 3.910156 -9.875 3.472656 -10.46875 3.203125 -11.03125 C 2.941406 -11.59375 2.8125 -12.175781 2.8125 -12.78125 C 2.8125 -13.59375 3.023438 -14.304688 3.453125 -14.921875 C 3.878906 -15.535156 4.484375 -16.015625 5.265625 -16.359375 C 6.054688 -16.703125 6.96875 -16.875 8 -16.875 C 9.4375 -16.875 10.59375 -16.523438 11.46875 -15.828125 C 12.34375 -15.140625 12.78125 -14.210938 12.78125 -13.046875 C 12.78125 -12.179688 12.519531 -11.414062 12 -10.75 C 11.488281 -10.082031 10.660156 -9.441406 9.515625 -8.828125 L 12.5625 -6 C 12.925781 -6.757812 13.203125 -7.625 13.390625 -8.59375 L 16.375 -7.65625 C 16.050781 -6.1875 15.539062 -4.925781 14.84375 -3.875 L 16.796875 -2.078125 Z M 8 -14.34375 C 7.4375 -14.34375 6.992188 -14.203125 6.671875 -13.921875 C 6.347656 -13.640625 6.1875 -13.273438 6.1875 -12.828125 C 6.1875 -12.492188 6.269531 -12.179688 6.4375 -11.890625 C 6.613281 -11.597656 6.957031 -11.203125 7.46875 -10.703125 C 8.28125 -11.128906 8.84375 -11.515625 9.15625 -11.859375 C 9.476562 -12.203125 9.640625 -12.570312 9.640625 -12.96875 C 9.640625 -13.382812 9.492188 -13.71875 9.203125 -13.96875 C 8.921875 -14.21875 8.519531 -14.34375 8 -14.34375 Z M 7.46875 -2.625 C 8.625 -2.625 9.664062 -2.945312 10.59375 -3.59375 L 6.5625 -7.359375 C 5.820312 -6.921875 5.289062 -6.492188 4.96875 -6.078125 C 4.65625 -5.671875 4.5 -5.207031 4.5 -4.6875 C 4.5 -4.070312 4.765625 -3.570312 5.296875 -3.1875 C 5.835938 -2.8125 6.5625 -2.625 7.46875 -2.625 Z M 7.46875 -2.625 "/></g></g><g style="fill:#ffffff;fill-opacity:1;"><g transform="translate(268.591009, 130.043697)"><path style="stroke:none" d=""/></g></g><g style="fill:#33bedd;fill-opacity:1;"><g transform="translate(275.329081, 130.043697)"><path style="stroke:none" d="M 1.96875 -16.65625 L 5.828125 -16.65625 L 5.828125 0 L 1.96875 0 Z M 1.96875 -16.65625 "/></g></g><g style="fill:#33bedd;fill-opacity:1;"><g transform="translate(283.131431, 130.043697)"><path style="stroke:none" d="M 5.421875 -13.515625 L 0.09375 -13.515625 L 0.09375 -16.65625 L 14.609375 -16.65625 L 14.609375 -13.515625 L 9.28125 -13.515625 L 9.28125 0 L 5.421875 0 Z M 5.421875 -13.515625 "/></g></g><g style="fill:#33bedd;fill-opacity:1;"><g transform="translate(297.832198, 130.043697)"><path style="stroke:none" d="M 9.1875 -16.65625 C 10.664062 -16.65625 11.945312 -16.410156 13.03125 -15.921875 C 14.113281 -15.429688 14.945312 -14.734375 15.53125 -13.828125 C 16.125 -12.921875 16.421875 -11.847656 16.421875 -10.609375 C 16.421875 -9.390625 16.125 -8.320312 15.53125 -7.40625 C 14.945312 -6.5 14.113281 -5.800781 13.03125 -5.3125 C 11.945312 -4.832031 10.664062 -4.59375 9.1875 -4.59375 L 5.828125 -4.59375 L 5.828125 0 L 1.96875 0 L 1.96875 -16.65625 Z M 8.96875 -7.734375 C 10.125 -7.734375 11.003906 -7.984375 11.609375 -8.484375 C 12.210938 -8.984375 12.515625 -9.691406 12.515625 -10.609375 C 12.515625 -11.546875 12.210938 -12.265625 11.609375 -12.765625 C 11.003906 -13.265625 10.125 -13.515625 8.96875 -13.515625 L 5.828125 -13.515625 L 5.828125 -7.734375 Z M 8.96875 -7.734375 "/></g></g></g></svg>