<svg xmlns="http://www.w3.org/2000/svg" version="1.1" xmlns:xlink="http://www.w3.org/1999/xlink" width="512" height="512" x="0" y="0" viewBox="0 0 48 48" style="enable-background:new 0 0 512 512" xml:space="preserve" class=""><g><path d="M27.42 24.37c-.37-.69-.85-1.32-1.41-1.89a8.09 8.09 0 0 0-1.87-1.4c-.54-.31-1.13-.56-1.77-.75-.02-.01-.04-.01-.06-.02-.76-.21-1.53-.32-2.3-.32h-.02c-.38 0-.77.03-1.15.08-.39.05-.77.13-1.16.24-.02.01-.04.01-.06.02-.2.06-.38.13-.57.2-.11.04-.22.07-.33.11-.3.13-.59.27-.86.43-.69.37-1.32.84-1.89 1.41-.56.56-1.04 1.2-1.4 1.87s0 .01-.01.01v.01c-.31.53-.55 1.12-.74 1.74-.01.02-.02.04-.02.06-.21.77-.32 1.55-.32 2.31s.11 1.54.32 2.32c.19.66.45 1.27.76 1.81.37.69.85 1.32 1.41 1.89.56.56 1.2 1.04 1.87 1.4.53.31 1.13.56 1.77.75.02.01.04.01.06.02.78.22 1.56.33 2.33.33s1.55-.11 2.32-.32c.02-.01.04-.01.06-.02a8.15 8.15 0 0 0 1.75-.74 8.03 8.03 0 0 0 1.89-1.41 8.09 8.09 0 0 0 1.4-1.87c.31-.54.56-1.13.75-1.77.01-.02.02-.04.02-.06.21-.77.32-1.55.32-2.31s-.11-1.54-.32-2.32c-.19-.65-.45-1.27-.77-1.81zm-.58 1.08c.05.12.11.24.15.37h-.52zm-4.16-3.95c.12.05.25.1.37.15l-.37.37zm-5.36 0v.52l-.37-.37c.12-.05.25-.1.37-.15zm-4.16 3.95.37.37H13c.05-.12.1-.25.16-.37zm0 6.1c-.05-.12-.11-.24-.15-.37h.52zm4.16 3.95c-.12-.05-.25-.1-.37-.15l.37-.37zm5.36 0v-.52l.37.37c-.12.05-.25.1-.37.15zm4.16-3.95-.37-.37H27c-.05.12-.1.25-.16.37zM27 29h.47c-.03.39-.08.79-.17 1.18h-2.02a.499.499 0 0 0-.35.85l1.43 1.43c-.21.34-.44.66-.71.97l-.35-.33c-.2-.2-.51-.2-.71 0s-.2.51 0 .71l.33.33c-.3.26-.62.5-.97.71l-1.43-1.43c-.14-.14-.36-.19-.54-.11s-.31.26-.31.46v2.02c-.39.09-.79.14-1.18.17v-.46c0-.28-.22-.5-.5-.5s-.5.22-.5.5v.46c-.39-.03-.79-.08-1.18-.17v-2.02a.499.499 0 0 0-.85-.35l-1.43 1.43c-.34-.21-.66-.44-.97-.71l.33-.33c.2-.2.2-.51 0-.71s-.51-.2-.71 0l-.33.33c-.26-.3-.5-.62-.71-.97l1.43-1.43a.499.499 0 0 0-.35-.85H12.7a6.85 6.85 0 0 1-.17-1.18H13c.28 0 .5-.22.5-.5s-.22-.5-.5-.5h-.47c.03-.39.08-.79.17-1.18h2.02a.499.499 0 0 0 .35-.85l-1.43-1.43c.21-.34.44-.66.71-.97l.33.33c.1.1.23.15.35.15s.28-.05.37-.15c.2-.2.2-.51 0-.71l-.33-.33c.3-.26.62-.5.97-.71l1.43 1.43a.485.485 0 0 0 .54.11c.19-.08.31-.26.31-.46v-2.02c.39-.09.79-.14 1.18-.17v.46c0 .28.22.5.5.5s.5-.22.5-.5v-.46c.39.03.79.08 1.18.17v2.02c0 .2.12.38.31.46.06.03.13.04.19.04.13 0 .26-.05.35-.15l1.43-1.43c.34.21.66.44.97.71l-.33.34c-.2.2-.2.51 0 .71.1.1.23.15.35.15s.26-.06.35-.16l.33-.33c.26.3.5.62.71.97l-1.43 1.43a.499.499 0 0 0 .35.85h2.02c.09.39.15.79.17 1.18H27c-.28 0-.5.22-.5.5s.22.5.5.5z" fill="#36454f" opacity="1" data-original="#000000"></path><path d="M30.25 30.79c.17-.73.25-1.5.25-2.29s-.08-1.56-.25-2.29c-.26-1.2-.73-2.32-1.38-3.33C26.92 19.82 23.61 18 20 18c-2.01 0-3.95.57-5.61 1.64a10.03 10.03 0 0 0-3.24 3.24 9.981 9.981 0 0 0-1.39 3.33c-.17.73-.25 1.5-.25 2.29s.08 1.56.25 2.29c.26 1.2.73 2.32 1.38 3.33a10.23 10.23 0 0 0 3.24 3.24c1.01.66 2.13 1.13 3.33 1.39.73.17 1.5.25 2.29.25s1.56-.08 2.29-.25c1.2-.26 2.33-.73 3.33-1.38 1.31-.82 2.43-1.94 3.25-3.24.65-1.02 1.12-2.14 1.38-3.34zm-5.17 5.73a9.1 9.1 0 0 1-3.01 1.25c-1.32.3-2.81.3-4.14 0a9.085 9.085 0 0 1-3.01-1.26 9.377 9.377 0 0 1-2.94-2.94 9.1 9.1 0 0 1-1.25-3.01 9.38 9.38 0 0 1 0-4.14c.24-1.08.66-2.09 1.25-3v-.01a9.244 9.244 0 0 1 2.94-2.93A9.358 9.358 0 0 1 20 19a9.44 9.44 0 0 1 8.02 4.42 9.1 9.1 0 0 1 1.25 3.01 9.38 9.38 0 0 1 0 4.14 9.279 9.279 0 0 1-1.25 3.01 9.174 9.174 0 0 1-2.94 2.94z" fill="#36454f" opacity="1" data-original="#000000"></path><path d="M20 25c-1.93 0-3.5 1.57-3.5 3.5S18.07 32 20 32s3.5-1.57 3.5-3.5S21.93 25 20 25zm0 6a2.5 2.5 0 0 1 0-5 2.5 2.5 0 0 1 0 5z" fill="#36454f" opacity="1" data-original="#000000"></path><path d="M43.17 10.69s.01-.01.02-.01c0 0 .01-.01.01-.02.8-.81 1.3-1.93 1.3-3.16s-.5-2.35-1.31-3.17c0 0-.01-.01-.01-.02 0 0-.01-.01-.02-.01C42.35 3.5 41.23 3 40 3s-2.35.5-3.17 1.31c0 0-.01.01-.02.01 0 0-.01.01-.01.02-.8.81-1.3 1.93-1.3 3.16s.5 2.35 1.31 3.17c0 0 .01.01.01.02 0 0 .01.01.02.01.7.7 1.63 1.14 2.67 1.26V13H39c-.28 0-.5.22-.5.5v2c0 .28.22.5.5.5h.5v18.5c0 .83-.67 1.5-1.5 1.5a2.5 2.5 0 0 0 0 5h4c.83 0 1.5.67 1.5 1.5S42.83 44 42 44h-9.79l-2.32-2.32c.61-.46 1.2-.95 1.74-1.48.01-.01.03-.02.04-.03s.02-.03.03-.04c1.5-1.51 2.71-3.31 3.54-5.3 0-.01.01-.01.01-.01a16.439 16.439 0 0 0 1.26-6.31c0-2.22-.45-4.34-1.25-6.28 0-.01 0-.02-.01-.03 0-.01-.01-.01-.01-.02a16.44 16.44 0 0 0-3.54-5.29c-.01-.01-.02-.03-.03-.04s-.03-.02-.04-.03c-1.51-1.5-3.3-2.71-5.29-3.54-.01 0-.01-.01-.02-.01s-.02 0-.03-.01C24.34 12.45 22.22 12 20 12s-4.34.45-6.28 1.25c-.01 0-.02 0-.03.01-.01 0-.01.01-.02.01a16.44 16.44 0 0 0-5.29 3.54c-.01.01-.03.02-.04.03s-.02.03-.03.04c-1.5 1.51-2.71 3.3-3.54 5.29 0 .01-.01.01-.01.02s0 .02-.01.03c-.8 1.94-1.25 4.06-1.25 6.28s.45 4.34 1.25 6.28c0 .01 0 .02.01.03 0 .01.01.01.01.01.83 1.99 2.04 3.79 3.54 5.3.01.01.02.03.03.04s.03.02.04.03c1.51 1.5 3.3 2.71 5.29 3.54.01 0 .01.01.02.01s.02 0 .03.01c1.94.8 4.06 1.25 6.28 1.25s4.34-.45 6.28-1.25c.01 0 .02 0 .03-.01.01 0 .01-.01.02-.01.96-.4 1.87-.89 2.73-1.46l2.58 2.58c.1.1.23.15.36.15h10a2.5 2.5 0 0 0 0-5h-4c-.83 0-1.5-.67-1.5-1.5S37.17 37 38 37a2.5 2.5 0 0 0 2.5-2.5V16h.5c.28 0 .5-.22.5-.5v-2c0-.28-.22-.5-.5-.5h-.5v-1.05c1.03-.12 1.97-.56 2.67-1.26zM27.35 39.15c-.2-.2-.51-.2-.71 0s-.2.51 0 .71l1.69 1.69c-.62.4-1.27.75-1.95 1.06l-.95-2.29c-.11-.25-.4-.38-.65-.27s-.38.4-.27.65l.95 2.29c-1.55.59-3.22.93-4.96.99V41.5c0-.28-.22-.5-.5-.5s-.5.22-.5.5v2.47c-1.74-.06-3.41-.4-4.96-.99l.95-2.29a.493.493 0 0 0-.27-.65.497.497 0 0 0-.65.27l-.95 2.29c-1.55-.71-2.97-1.66-4.2-2.82l1.75-1.75c.2-.2.2-.51 0-.71s-.51-.2-.71 0l-1.75 1.75a15.793 15.793 0 0 1-2.82-4.2l2.29-.95c.25-.11.38-.4.27-.65s-.4-.38-.65-.27l-2.29.95c-.59-1.54-.93-3.21-.98-4.95H7c.28 0 .5-.22.5-.5S7.28 28 7 28H4.53c.06-1.74.4-3.41.99-4.96l2.29.95c.06.03.13.04.19.04.2 0 .38-.12.46-.31a.493.493 0 0 0-.27-.65l-2.29-.95c.71-1.55 1.66-2.97 2.82-4.2l1.75 1.75a.485.485 0 0 0 .7 0c.2-.2.2-.51 0-.71l-1.75-1.75c1.23-1.15 2.65-2.11 4.2-2.82l.95 2.29c.08.19.27.31.46.31a.5.5 0 0 0 .46-.69l-.95-2.29c1.55-.59 3.22-.93 4.96-.99v2.47c0 .28.22.5.5.5s.5-.22.5-.5v-2.47c1.74.06 3.41.4 4.96.99l-.95 2.29c-.11.26.02.55.27.65.06.03.13.04.19.04.2 0 .38-.12.46-.31l.95-2.29c1.55.71 2.97 1.66 4.2 2.82l-1.75 1.75c-.2.2-.2.51 0 .71a.485.485 0 0 0 .7 0l1.75-1.75c1.15 1.23 2.11 2.65 2.82 4.2l-2.29.95a.5.5 0 0 0-.27.65c.08.19.27.31.46.31.06 0 .13-.01.19-.04l2.29-.95c.59 1.55.93 3.22.99 4.96H33c-.28 0-.5.22-.5.5s.22.5.5.5h2.47c-.06 1.74-.4 3.41-.99 4.96l-2.29-.95a.497.497 0 0 0-.65.27c-.11.26.02.55.27.65l2.29.95c-.71 1.55-1.66 2.97-2.82 4.2l-1.75-1.75c-.2-.2-.51-.2-.71 0s-.2.51 0 .71l1.75 1.75c-.45.42-.92.81-1.41 1.17zM40.5 15h-1v-1h1zm-.5-5c-.28 0-.5.22-.5.5v.45c-.59-.09-1.13-.31-1.59-.66l.32-.32c.2-.2.2-.51 0-.71s-.51-.2-.71 0l-.32.32c-.34-.46-.57-1-.66-1.59H37c.28 0 .5-.22.5-.5S37.28 7 37 7h-.45c.09-.59.31-1.13.66-1.59l.32.32a.485.485 0 0 0 .7 0c.2-.19.2-.51 0-.71l-.32-.32c.46-.34 1-.57 1.59-.66v.46c0 .28.22.5.5.5s.5-.22.5-.5v-.45c.59.09 1.13.31 1.59.66l-.32.32c-.2.2-.2.51 0 .71a.485.485 0 0 0 .7 0l.32-.32c.34.46.57 1 .66 1.59H43c-.28 0-.5.22-.5.5s.22.49.5.49h.45c-.09.59-.31 1.13-.66 1.59l-.32-.32c-.2-.2-.51-.2-.71 0-.2.19-.2.51 0 .71l.32.32c-.46.34-1 .57-1.59.66v-.46A.48.48 0 0 0 40 10z" fill="#36454f" opacity="1" data-original="#000000"></path><path d="m40.35 7.15-1-1c-.2-.2-.51-.2-.71 0s-.2.51 0 .71l1 1c.1.09.23.14.36.14s.26-.05.35-.15c.2-.19.2-.51 0-.7z" fill="#36454f" opacity="1" data-original="#000000"></path></g></svg>