<svg xmlns="http://www.w3.org/2000/svg" version="1.1" xmlns:xlink="http://www.w3.org/1999/xlink" width="512" height="512" x="0" y="0" viewBox="0 0 64 64" style="enable-background:new 0 0 512 512" xml:space="preserve" class=""><g><path d="M58.419 35.7c-1.984-1.648-4.208-3.605-5.305-4.7h3.166a2.72 2.72 0 0 0 0-5.44c-1.499.081-4.284-.335-5.545.619-1.28-3.192-2.756-7.038-2.785-7.11a5.032 5.032 0 0 0-3.034-2.808 1 1 0 1 0-.632 1.898 3.017 3.017 0 0 1 1.812 1.66c.026.025 2.857 7.453 4.044 10.18L13.86 30c1.17-2.721 4.035-10.149 4.03-10.148a3.033 3.033 0 0 1 1.826-1.693 1 1 0 0 0-.632-1.898 5.05 5.05 0 0 0-3.047 2.84c-.017.045-1.493 3.887-2.772 7.078-1.26-.96-4.077-.532-5.545-.619a2.72 2.72 0 1 0 0 5.44h3.165c-1.1 1.099-3.333 3.064-5.358 4.749A4.609 4.609 0 0 0 4 39.21V49a4.99 4.99 0 0 0 1 2.958V57a3.003 3.003 0 0 0 3 3h6a3.003 3.003 0 0 0 3-3v-3h30v3a3.003 3.003 0 0 0 3 3h6a3.003 3.003 0 0 0 3-3v-5.042A4.991 4.991 0 0 0 60 49v-9.79a4.614 4.614 0 0 0-1.581-3.51Zm-5.569-8.14h3.43a.72.72 0 1 1 0 1.44h-4.391c-.116-.276-.242-.578-.378-.908a1.978 1.978 0 0 1 1.34-.532ZM7.72 29a.72.72 0 1 1 0-1.44h3.43a1.978 1.978 0 0 1 1.339.532c-.136.33-.262.632-.378.908ZM15 57a1.001 1.001 0 0 1-1 1H8a1.001 1.001 0 0 1-1-1v-3.422c1.278.745 6.392.317 8 .422Zm5.263-5 .735-2h22.218l.684 2ZM57 57a1.001 1.001 0 0 1-1 1h-6a1.001 1.001 0 0 1-1-1v-3c1.687-.107 6.692.325 8-.423Zm1-8a3.03 3.03 0 0 1-3 3h-8.985l-1.139-3.324A1 1 0 0 0 43.93 48H20.3a1 1 0 0 0-.939.655L18.132 52H9a3.01 3.01 0 0 1-3-3v-9.79a2.613 2.613 0 0 1 .86-1.97c1.12-.933 4.398-3.69 5.823-5.24h38.634c1.422 1.547 4.694 4.299 5.77 5.19A2.612 2.612 0 0 1 58 39.21Z" fill="#36454f" opacity="1" data-original="#000000" class=""></path><path d="M17.762 38.445A1 1 0 0 0 16.93 38H9a1 1 0 0 0-1 1 5.006 5.006 0 0 0 5 5h6.6a1.006 1.006 0 0 0 .832-1.555ZM13 42a3.005 3.005 0 0 1-2.829-2h6.225l1.335 2ZM42.27 38H21.73a1.007 1.007 0 0 0-.831 1.555l2.67 4a1 1 0 0 0 .83.445H39.6a1 1 0 0 0 .832-.445l2.67-4A1.007 1.007 0 0 0 42.27 38Zm-3.205 4h-14.13L23.6 40h16.8ZM55 38h-7.93a1 1 0 0 0-.832.445l-2.67 4A1.006 1.006 0 0 0 44.4 44H51a5.006 5.006 0 0 0 5-5 1 1 0 0 0-1-1Zm-4 4h-4.73l1.335-2h6.224A3.005 3.005 0 0 1 51 42ZM32 24a10 10 0 1 0-10-10 10.011 10.011 0 0 0 10 10Zm0-18a8 8 0 1 1-8 8 8.01 8.01 0 0 1 8-8Z" fill="#36454f" opacity="1" data-original="#000000" class=""></path><path d="M29.961 17.37a1 1 0 0 0 1.414 0l5.326-5.326a1 1 0 1 0-1.414-1.414l-4.619 4.619-1.955-1.956a1 1 0 1 0-1.414 1.414Z" fill="#36454f" opacity="1" data-original="#000000" class=""></path></g></svg>