<svg xmlns="http://www.w3.org/2000/svg" version="1.1" xmlns:xlink="http://www.w3.org/1999/xlink" width="512" height="512" x="0" y="0" viewBox="0 0 512 512" style="enable-background:new 0 0 512 512" xml:space="preserve" class=""><g><path d="m347.4 348.51 7.88-4.22c-27.58-30.59-20.78-80.53-13.92-130.88 2.98-21.94 5.98-43.97 5.98-64.18 0-47.4-17.69-84.5-97.34-84.5-25.31 0-54.17 6.72-73.67 22.85 2.89 3.23 4.68 7.51 4.68 12.19v11.11h46.37c14.43 0 26.62 11.42 26.62 25.85v198.85c0 2.27-1.08 4.28-2.75 5.58l-21.77 20.35v86.26c0 14.85-12.59 26.59-27.47 26.59H84.63c-14.88 0-27.47-11.74-27.47-26.59V361.7l-22.31-21a6.975 6.975 0 0 1-2.21-5.1V136.74c0-14.43 12.19-25.85 26.62-25.85h46.37V99.77c0-10.09 8.25-18.37 18.37-18.37h5.3c.6-1.9 1.47-3.71 2.61-5.39 24.75-36.24 74.78-52.2 118.09-52.2 114.21 0 138.19 57.03 138.19 123.08 0 23.98-3.34 49.27-6.52 73.25-6.26 47.48-11.85 89.63 11.42 102.7.37.2.68.43.99.65l14.66-7.85c3.37-1.81 7.6-.51 9.41 2.89l18.03 33.62 15.76 6.32c1.7.68 3 1.96 3.71 3.49l37.98 70.87c1.81 3.4.54 7.63-2.86 9.44l-83.42 44.7c-3.4 1.81-7.63.54-9.44-2.86l-38.13-71.15c-.82-1.53-1.02-3.2-.65-4.76l3.34-16.7-17.97-33.53c-1.78-3.42-.5-7.64 2.9-9.46zm20.67-11.08 12.16-6.52C312.87 275.92 473.57 37.81 250 37.81c-37.47 0-81.95 13.01-104.8 43.6h17.09s28.06-30.64 87.7-30.64c205.3-.01 50.02 219.82 118.08 286.66zm41.1-6.21-49.07 26.31 15.87 29.59c.74 1.36 1.02 3 .68 4.65l-3.4 16.81 33.68 62.79 71.12-38.13-33.65-62.76-15.76-6.32c-1.47-.6-2.75-1.7-3.54-3.2zm-266.12 31.04c17.35 0 26.11 21.09 13.83 33.36-12.27 12.3-33.36 3.54-33.36-13.8 0-10.8 8.76-19.56 19.53-19.56zm3.94 15.62c-3.49-3.46-9.47-.99-9.47 3.94s5.98 7.4 9.47 3.91c2.16-2.15 2.16-5.67 0-7.85zm-22.82 24.24h37.73c3.88 0 7 3.15 7 7v27.1c0 3.88-3.12 7-7 7h-37.73c-3.88 0-7-3.12-7-7v-27.1c0-3.86 3.12-7 7-7zm30.73 14h-23.73v13.1h23.73zm-30.73-95.72h37.73c3.88 0 7 3.15 7 7v27.13c0 3.86-3.12 7-7 7h-37.73c-3.88 0-7-3.15-7-7V327.4c0-3.86 3.12-7 7-7zm30.73 14h-23.73v13.12h23.73zm-78.38 62.45v-32.17c0-3.86 3.15-7 7-7h29.91c3.85 0 7 3.15 7 7v32.17c0 3.86-3.15 7-7 7H83.52c-3.85 0-7-3.15-7-7zm14.01-25.18v18.17h15.9v-18.17zm119.59-7.48v32.17c0 3.86-3.15 7-7 7h-29.91c-3.85 0-7-3.15-7-7v-32.17c0-3.88 3.15-7 7-7h29.91c3.85 0 7 3.12 7 7zm-14 25.17v-18.17h-15.9v18.17zM81.2 138.3h124.24c10.52 0 19.11 8.59 19.11 19.13v138.76c0 10.54-8.59 19.13-19.11 19.13H81.2c-10.54 0-19.13-8.59-19.13-19.13V157.43c0-10.54 8.58-19.13 19.13-19.13zm124.24 14H81.2c-2.81 0-5.13 2.32-5.13 5.13v138.76c0 2.81 2.32 5.13 5.13 5.13h124.24c2.81 0 5.13-2.32 5.13-5.13V157.43c0-2.8-2.32-5.13-5.13-5.13zm-85.8-41.41H167V99.77c0-2.38-1.98-4.37-4.37-4.37H124c-2.38 0-4.37 1.98-4.37 4.37v11.12zm107.74 14H59.26c-6.8 0-12.64 5.13-12.64 11.85v195.85l22 20.69a6.978 6.978 0 0 1 2.55 5.41v89.09c0 7.11 6.21 12.61 13.46 12.61h117.38c7.26 0 13.46-5.5 13.46-12.61v-89.23h.03c0-1.87.74-3.71 2.21-5.1l22.31-20.83V136.74c0-6.72-5.84-11.85-12.64-11.85z" fill="#36454f" opacity="1" data-original="#000000"></path></g></svg>