<svg xmlns="http://www.w3.org/2000/svg" version="1.1" xmlns:xlink="http://www.w3.org/1999/xlink" width="512" height="512" x="0" y="0" viewBox="0 0 682.667 682.667" style="enable-background:new 0 0 512 512" xml:space="preserve" class=""><g><defs><clipPath id="a" clipPathUnits="userSpaceOnUse"><path d="M0 512h512V0H0Z" fill="#36454f" opacity="1" data-original="#000000"></path></clipPath></defs><g clip-path="url(#a)" transform="matrix(1.33333 0 0 -1.33333 0 682.667)"><path d="M0 0c-16.418-4.321-34.629-.046-47.499 12.824-15.993 15.993-18.713 40.233-8.16 59.031" style="stroke-width:15;stroke-linecap:round;stroke-linejoin:round;stroke-miterlimit:10;stroke-dasharray:none;stroke-opacity:1" transform="translate(170.702 306.2)" fill="none" stroke="#36454f" stroke-width="15" stroke-linecap="round" stroke-linejoin="round" stroke-miterlimit="10" stroke-dasharray="none" stroke-opacity="" data-original="#000000" opacity="1" class=""></path><path d="M0 0c17.55 6.557 38.082 2.779 52.194-11.333 12.869-12.87 17.145-31.079 12.825-47.496" style="stroke-width:15;stroke-linecap:round;stroke-linejoin:round;stroke-miterlimit:10;stroke-dasharray:none;stroke-opacity:1" transform="translate(140.794 400.142)" fill="none" stroke="#36454f" stroke-width="15" stroke-linecap="round" stroke-linejoin="round" stroke-miterlimit="10" stroke-dasharray="none" stroke-opacity="" data-original="#000000" opacity="1" class=""></path><path d="M0 0h-12.511c-2.623 0-4.869 1.841-5.423 4.405a119.768 119.768 0 0 1-16.405 39.644c-1.42 2.202-1.132 5.091.722 6.944L-18.08 66.53a5.548 5.548 0 0 1 0 7.845l-22.071 22.071a5.548 5.548 0 0 1-7.845 0l-15.537-15.537c-1.854-1.853-4.742-2.141-6.945-.721a119.797 119.797 0 0 1-39.643 16.405c-2.564.553-4.405 2.8-4.405 5.423v21.987a5.547 5.547 0 0 1-5.547 5.547h-31.214a5.546 5.546 0 0 1-5.547-5.547v-21.987c0-2.623-1.841-4.87-4.404-5.423a119.793 119.793 0 0 1-39.644-16.405c-2.203-1.42-5.092-1.132-6.944.721l-15.537 15.537a5.548 5.548 0 0 1-7.845 0l-22.071-22.071a5.548 5.548 0 0 1 0-7.845l15.537-15.537c1.852-1.853 2.141-4.742.721-6.945a119.755 119.755 0 0 1-16.405-39.643c-.554-2.564-2.8-4.405-5.423-4.405h-21.988a5.547 5.547 0 0 1-5.547-5.547v-31.214a5.548 5.548 0 0 1 5.547-5.547h21.988c2.623 0 4.869-1.84 5.423-4.404a119.751 119.751 0 0 1 16.405-39.644c1.42-2.203 1.131-5.091-.721-6.944l-15.537-15.537a5.548 5.548 0 0 1 0-7.845l22.071-22.071a5.548 5.548 0 0 1 7.845 0l15.537 15.537c1.852 1.853 4.741 2.141 6.944.721a119.772 119.772 0 0 1 39.644-16.405c2.563-.554 4.404-2.8 4.404-5.423v-10.917" style="stroke-width:15;stroke-linecap:round;stroke-linejoin:round;stroke-miterlimit:10;stroke-dasharray:none;stroke-opacity:1" transform="translate(293.775 375.07)" fill="none" stroke="#36454f" stroke-width="15" stroke-linecap="round" stroke-linejoin="round" stroke-miterlimit="10" stroke-dasharray="none" stroke-opacity="" data-original="#000000" opacity="1" class=""></path><path d="M0 0c-19.908-19.908-52.186-19.908-72.094 0-19.907 19.908-19.907 52.185 0 72.093 19.908 19.908 52.186 19.908 72.094 0C19.907 52.185 19.907 19.908 0 0Z" style="stroke-width:15;stroke-linecap:round;stroke-linejoin:round;stroke-miterlimit:10;stroke-dasharray:none;stroke-opacity:1" transform="translate(354.187 157.802)" fill="none" stroke="#36454f" stroke-width="15" stroke-linecap="round" stroke-linejoin="round" stroke-miterlimit="10" stroke-dasharray="none" stroke-opacity="" data-original="#000000" opacity="1" class=""></path><path d="M0 0c-13.723 32.326-7.404 71.135 18.952 97.492 34.667 34.667 90.872 34.667 125.539 0 34.666-34.666 34.666-90.871 0-125.538-34.4-34.4-90.009-34.664-124.735-.793" style="stroke-width:15;stroke-linecap:round;stroke-linejoin:round;stroke-miterlimit:10;stroke-dasharray:none;stroke-opacity:1" transform="translate(236.418 159.125)" fill="none" stroke="#36454f" stroke-width="15" stroke-linecap="round" stroke-linejoin="round" stroke-miterlimit="10" stroke-dasharray="none" stroke-opacity="" data-original="#000000" opacity="1" class=""></path><path d="m0 0 27.31 27.31a6.864 6.864 0 0 1 0 9.706L8.086 56.24c-2.293 2.293-2.65 5.867-.893 8.593a148.183 148.183 0 0 1 20.298 49.051c.686 3.172 3.465 5.45 6.71 5.45h27.206a6.864 6.864 0 0 1 6.864 6.864v38.621a6.864 6.864 0 0 1-6.864 6.863H34.201c-3.245 0-6.024 2.278-6.71 5.451a148.197 148.197 0 0 1-20.298 49.052c-1.757 2.725-1.4 6.299.893 8.591l19.224 19.225a6.864 6.864 0 0 1 0 9.706L0 291.017a6.864 6.864 0 0 1-9.706 0l-19.224-19.225c-2.293-2.292-5.867-2.649-8.592-.893a148.19 148.19 0 0 1-49.052 20.299c-3.172.685-5.45 3.464-5.45 6.71v27.206a6.864 6.864 0 0 1-6.864 6.863l-38.621.001a6.863 6.863 0 0 1-6.863-6.864v-27.206c0-3.246-2.278-6.025-5.45-6.71a148.182 148.182 0 0 1-49.052-20.299c-2.726-1.756-6.3-1.399-8.593.893l-19.223 19.225a6.864 6.864 0 0 1-9.706 0l-27.31-27.31a6.862 6.862 0 0 1 0-9.706l19.224-19.225c2.293-2.292 2.65-5.866.892-8.592a148.204 148.204 0 0 1-20.298-49.051c-.685-3.173-3.465-5.451-6.71-5.451h-27.206a6.863 6.863 0 0 1-6.863-6.863v-38.621a6.863 6.863 0 0 1 6.863-6.864h27.206c3.245 0 6.025-2.278 6.71-5.45a148.204 148.204 0 0 1 20.298-49.051c1.758-2.726 1.401-6.3-.892-8.593l-19.224-19.224a6.862 6.862 0 0 1 0-9.706L-236.396 0a6.864 6.864 0 0 1 9.706 0l19.223 19.225c2.293 2.292 5.867 2.649 8.593.892A148.18 148.18 0 0 1-149.822-.181c3.172-.686 5.45-3.465 5.45-6.71v-27.206a6.862 6.862 0 0 1 6.863-6.863h38.621a6.863 6.863 0 0 1 6.864 6.862v27.207c0 3.245 2.278 6.024 5.45 6.71a148.21 148.21 0 0 1 49.052 20.298c2.725 1.757 6.299 1.4 8.592-.892L-9.706 0A6.864 6.864 0 0 1 0 0Z" style="stroke-width:15;stroke-linecap:round;stroke-linejoin:round;stroke-miterlimit:10;stroke-dasharray:none;stroke-opacity:1" transform="translate(436.338 48.34)" fill="none" stroke="#36454f" stroke-width="15" stroke-linecap="round" stroke-linejoin="round" stroke-miterlimit="10" stroke-dasharray="none" stroke-opacity="" data-original="#000000" opacity="1" class=""></path></g></g></svg>